<svg width="604" height="280" viewBox="0 0 604 280" fill="none" xmlns="http://www.w3.org/2000/svg">
<path fill-rule="evenodd" clip-rule="evenodd" d="M1088.57 139.944L1232.34 279.887L1096.79 279.887L953.013 139.944L1096.79 -0.0014806L1232.34 -0.00148632L1088.57 139.944ZM994.092 279.887L858.535 279.887L714.76 139.944L858.535 -0.00147055L994.092 -0.00147627L850.316 139.944L994.092 279.887ZM755.838 279.887L620.282 279.887L476.507 139.944L620.281 -0.0014605L755.838 -0.00146622L612.063 139.944L755.838 279.887ZM517.584 279.887L382.029 279.887L238.253 139.944L382.029 -0.00145044L517.584 -0.00145616L373.809 139.944L517.584 279.887ZM279.331 279.887L143.775 279.887L-6.33728e-06 139.944L143.775 -0.00144039L279.331 -0.00144611L135.556 139.944L279.331 279.887Z" fill="#202020"/>
</svg>
