<svg width="1191" height="438" viewBox="0 0 1191 438" fill="none" xmlns="http://www.w3.org/2000/svg">
<g filter="url(#filter0_d_47_149)">
<mask id="path-1-outside-1_47_149" maskUnits="userSpaceOnUse" x="1" y="34" width="735" height="105" fill="black">
<rect fill="white" x="1" y="34" width="735" height="105"/>
<path d="M103.086 44.5137L112.354 57.209L100.42 101.643L84.3604 114.338H17.71L8.44238 101.516L20.3125 57.209L36.4355 44.5137H103.086ZM87.8516 72.6973H37.0703L33.6426 85.3926H84.4238L87.8516 72.6973ZM33.5791 133H62.1436L67.1582 114.338H38.5938L33.5791 133ZM46.3379 85.3926L49.7656 72.6973H75.1562L71.7285 85.3926H46.3379ZM145.679 63.1758L142.251 75.8711H183.447L177.544 98.0879H136.411L132.92 110.783H174.18L168.213 133H111.084L101.816 120.305L119.653 53.6543L135.776 40.959H192.905L186.938 63.1758H145.679ZM234.546 63.1758H221.851L209.092 110.783H221.787L223.501 104.436H252.065L247.812 120.305L231.689 133H187.256L177.988 120.305L195.825 53.6543L211.948 40.959H256.382L265.649 53.6543L261.396 69.5234H232.832L234.546 63.1758ZM348.423 40.959L342.456 63.1758H320.239L301.514 133H272.949L291.675 63.1758H269.458L275.425 40.959H348.423ZM382.954 101.262L358.643 133H330.078L354.771 40.959H383.335L373.94 75.8711L398.887 41.0859L398.95 40.959H427.769L403.076 133H374.512L382.954 101.262ZM453.413 75.8711H465.981L469.409 63.1758H456.714L453.413 75.8711ZM491.245 40.959L500.513 53.6543L493.721 79.0449L483.438 86.916L489.468 94.9141L482.676 120.305L466.553 133H409.424L434.116 40.959H491.245ZM443.955 110.783H456.65L460.078 98.0879L447.446 98.0244L443.955 110.783ZM517.397 126.652L514.16 133H485.596L532.505 40.959H567.417L564.941 133H536.377L536.567 126.652H517.397ZM537.139 104.436L537.583 86.9795L528.76 104.436H537.139ZM599.854 133H571.289L592.554 53.6543L608.677 40.959H665.806L641.113 133H612.549L631.274 63.1758H618.579L599.854 133ZM694.688 110.783L698.052 98.0879H685.356L681.992 110.783H694.688ZM691.323 75.8711H719.888L729.219 88.5664L720.713 120.305L704.59 133H647.461L672.153 40.959H700.718L691.323 75.8711Z"/>
</mask>
<path d="M103.086 44.5137L112.354 57.209L100.42 101.643L84.3604 114.338H17.71L8.44238 101.516L20.3125 57.209L36.4355 44.5137H103.086ZM87.8516 72.6973H37.0703L33.6426 85.3926H84.4238L87.8516 72.6973ZM33.5791 133H62.1436L67.1582 114.338H38.5938L33.5791 133ZM46.3379 85.3926L49.7656 72.6973H75.1562L71.7285 85.3926H46.3379ZM145.679 63.1758L142.251 75.8711H183.447L177.544 98.0879H136.411L132.92 110.783H174.18L168.213 133H111.084L101.816 120.305L119.653 53.6543L135.776 40.959H192.905L186.938 63.1758H145.679ZM234.546 63.1758H221.851L209.092 110.783H221.787L223.501 104.436H252.065L247.812 120.305L231.689 133H187.256L177.988 120.305L195.825 53.6543L211.948 40.959H256.382L265.649 53.6543L261.396 69.5234H232.832L234.546 63.1758ZM348.423 40.959L342.456 63.1758H320.239L301.514 133H272.949L291.675 63.1758H269.458L275.425 40.959H348.423ZM382.954 101.262L358.643 133H330.078L354.771 40.959H383.335L373.94 75.8711L398.887 41.0859L398.95 40.959H427.769L403.076 133H374.512L382.954 101.262ZM453.413 75.8711H465.981L469.409 63.1758H456.714L453.413 75.8711ZM491.245 40.959L500.513 53.6543L493.721 79.0449L483.438 86.916L489.468 94.9141L482.676 120.305L466.553 133H409.424L434.116 40.959H491.245ZM443.955 110.783H456.65L460.078 98.0879L447.446 98.0244L443.955 110.783ZM517.397 126.652L514.16 133H485.596L532.505 40.959H567.417L564.941 133H536.377L536.567 126.652H517.397ZM537.139 104.436L537.583 86.9795L528.76 104.436H537.139ZM599.854 133H571.289L592.554 53.6543L608.677 40.959H665.806L641.113 133H612.549L631.274 63.1758H618.579L599.854 133ZM694.688 110.783L698.052 98.0879H685.356L681.992 110.783H694.688ZM691.323 75.8711H719.888L729.219 88.5664L720.713 120.305L704.59 133H647.461L672.153 40.959H700.718L691.323 75.8711Z" fill="white"/>
<path d="M103.086 44.5137L107.932 40.976L106.135 38.5137H103.086V44.5137ZM112.354 57.209L118.148 58.7653L118.893 55.9912L117.2 53.6713L112.354 57.209ZM100.42 101.643L104.141 106.349L105.699 105.117L106.215 103.199L100.42 101.643ZM84.3604 114.338V120.338H86.4455L88.0812 119.045L84.3604 114.338ZM17.71 114.338L12.8472 117.853L14.6435 120.338H17.71V114.338ZM8.44238 101.516L2.64677 99.9629L1.90856 102.718L3.57958 105.03L8.44238 101.516ZM20.3125 57.209L16.6007 52.4949L15.0332 53.7292L14.5169 55.6563L20.3125 57.209ZM36.4355 44.5137V38.5137H34.3569L32.7237 39.7996L36.4355 44.5137ZM87.8516 72.6973L93.6441 74.2613L95.6864 66.6973H87.8516V72.6973ZM37.0703 72.6973V66.6973H32.4755L31.2777 71.1333L37.0703 72.6973ZM33.6426 85.3926L27.85 83.8286L25.8077 91.3926H33.6426V85.3926ZM84.4238 85.3926V91.3926H89.0187L90.2164 86.9566L84.4238 85.3926ZM33.5791 133L27.7846 131.443L25.754 139H33.5791V133ZM62.1436 133V139H66.7441L67.938 134.557L62.1436 133ZM67.1582 114.338L72.9527 115.895L74.9833 108.338H67.1582V114.338ZM38.5938 114.338V108.338H33.9932L32.7993 112.781L38.5938 114.338ZM46.3379 85.3926L40.5453 83.8286L38.503 91.3926H46.3379V85.3926ZM49.7656 72.6973V66.6973H45.1708L43.9731 71.1333L49.7656 72.6973ZM75.1562 72.6973L80.9488 74.2613L82.9911 66.6973H75.1562V72.6973ZM71.7285 85.3926V91.3926H76.3234L77.5211 86.9566L71.7285 85.3926ZM103.086 44.5137L98.2398 48.0513L107.507 60.7467L112.354 57.209L117.2 53.6713L107.932 40.976L103.086 44.5137ZM112.354 57.209L106.559 55.6527L94.6253 100.086L100.42 101.643L106.215 103.199L118.148 58.7653L112.354 57.209ZM100.42 101.643L96.699 96.9357L80.6395 109.631L84.3604 114.338L88.0812 119.045L104.141 106.349L100.42 101.643ZM84.3604 114.338V108.338H17.71V114.338V120.338H84.3604V114.338ZM17.71 114.338L22.5728 110.823L13.3052 98.0009L8.44238 101.516L3.57958 105.03L12.8472 117.853L17.71 114.338ZM8.44238 101.516L14.238 103.068L26.1081 58.7617L20.3125 57.209L14.5169 55.6563L2.64677 99.9629L8.44238 101.516ZM20.3125 57.209L24.0243 61.923L40.1474 49.2277L36.4355 44.5137L32.7237 39.7996L16.6007 52.4949L20.3125 57.209ZM36.4355 44.5137V50.5137H103.086V44.5137V38.5137H36.4355V44.5137ZM87.8516 72.6973V66.6973H37.0703V72.6973V78.6973H87.8516V72.6973ZM37.0703 72.6973L31.2777 71.1333L27.85 83.8286L33.6426 85.3926L39.4352 86.9566L42.8629 74.2613L37.0703 72.6973ZM33.6426 85.3926V91.3926H84.4238V85.3926V79.3926H33.6426V85.3926ZM84.4238 85.3926L90.2164 86.9566L93.6441 74.2613L87.8516 72.6973L82.059 71.1333L78.6313 83.8286L84.4238 85.3926ZM33.5791 133V139H62.1436V133V127H33.5791V133ZM62.1436 133L67.938 134.557L72.9527 115.895L67.1582 114.338L61.3637 112.781L56.3491 131.443L62.1436 133ZM67.1582 114.338V108.338H38.5938V114.338V120.338H67.1582V114.338ZM38.5938 114.338L32.7993 112.781L27.7846 131.443L33.5791 133L39.3736 134.557L44.3882 115.895L38.5938 114.338ZM46.3379 85.3926L52.1305 86.9566L55.5582 74.2613L49.7656 72.6973L43.9731 71.1333L40.5453 83.8286L46.3379 85.3926ZM49.7656 72.6973V78.6973H75.1562V72.6973V66.6973H49.7656V72.6973ZM75.1562 72.6973L69.3637 71.1333L65.9359 83.8286L71.7285 85.3926L77.5211 86.9566L80.9488 74.2613L75.1562 72.6973ZM71.7285 85.3926V79.3926H46.3379V85.3926V91.3926H71.7285V85.3926ZM145.679 63.1758V57.1758H141.084L139.886 61.6118L145.679 63.1758ZM142.251 75.8711L136.458 74.3071L134.416 81.8711H142.251V75.8711ZM183.447 75.8711L189.246 77.4119L191.25 69.8711H183.447V75.8711ZM177.544 98.0879V104.088H182.158L183.343 99.6287L177.544 98.0879ZM136.411 98.0879V92.0879H131.838L130.626 96.497L136.411 98.0879ZM132.92 110.783L127.135 109.192L125.047 116.783H132.92V110.783ZM174.18 110.783L179.974 112.339L182.004 104.783H174.18V110.783ZM168.213 133V139H172.814L174.008 134.556L168.213 133ZM111.084 133L106.238 136.538L108.035 139H111.084V133ZM101.816 120.305L96.0204 118.754L95.2787 121.525L96.9703 123.842L101.816 120.305ZM119.653 53.6543L115.941 48.9403L114.373 50.175L113.857 52.1032L119.653 53.6543ZM135.776 40.959V34.959H133.698L132.065 36.2449L135.776 40.959ZM192.905 40.959L198.7 42.5153L200.729 34.959H192.905V40.959ZM186.938 63.1758V69.1758H191.54L192.733 64.7321L186.938 63.1758ZM145.679 63.1758L139.886 61.6118L136.458 74.3071L142.251 75.8711L148.044 77.4351L151.471 64.7398L145.679 63.1758ZM142.251 75.8711V81.8711H183.447V75.8711V69.8711H142.251V75.8711ZM183.447 75.8711L177.648 74.3303L171.745 96.5471L177.544 98.0879L183.343 99.6287L189.246 77.4119L183.447 75.8711ZM177.544 98.0879V92.0879H136.411V98.0879V104.088H177.544V98.0879ZM136.411 98.0879L130.626 96.497L127.135 109.192L132.92 110.783L138.705 112.374L142.196 99.6788L136.411 98.0879ZM132.92 110.783V116.783H174.18V110.783V104.783H132.92V110.783ZM174.18 110.783L168.385 109.227L162.418 131.444L168.213 133L174.008 134.556L179.974 112.339L174.18 110.783ZM168.213 133V127H111.084V133V139H168.213V133ZM111.084 133L115.93 129.462L106.663 116.767L101.816 120.305L96.9703 123.842L106.238 136.538L111.084 133ZM101.816 120.305L107.612 121.856L125.449 55.2054L119.653 53.6543L113.857 52.1032L96.0204 118.754L101.816 120.305ZM119.653 53.6543L123.365 58.3683L139.488 45.673L135.776 40.959L132.065 36.2449L115.941 48.9403L119.653 53.6543ZM135.776 40.959V46.959H192.905V40.959V34.959H135.776V40.959ZM192.905 40.959L187.111 39.4027L181.144 61.6195L186.938 63.1758L192.733 64.7321L198.7 42.5153L192.905 40.959ZM186.938 63.1758V57.1758H145.679V63.1758V69.1758H186.938V63.1758ZM234.546 63.1758L240.338 64.7398L242.381 57.1758H234.546V63.1758ZM221.851 63.1758V57.1758H217.247L216.055 61.6226L221.851 63.1758ZM209.092 110.783L203.296 109.23L201.272 116.783H209.092V110.783ZM221.787 110.783V116.783H226.382L227.58 112.347L221.787 110.783ZM223.501 104.436V98.4355H218.906L217.708 102.872L223.501 104.436ZM252.065 104.436L257.861 105.989L259.885 98.4355H252.065V104.436ZM247.812 120.305L251.524 125.019L253.092 123.785L253.608 121.858L247.812 120.305ZM231.689 133V139H233.768L235.401 137.714L231.689 133ZM187.256 133L182.41 136.538L184.207 139H187.256V133ZM177.988 120.305L172.192 118.754L171.451 121.525L173.142 123.842L177.988 120.305ZM195.825 53.6543L192.113 48.9403L190.545 50.175L190.029 52.1032L195.825 53.6543ZM211.948 40.959V34.959H209.87L208.236 36.2449L211.948 40.959ZM256.382 40.959L261.228 37.4213L259.43 34.959H256.382V40.959ZM265.649 53.6543L271.445 55.2075L272.188 52.435L270.496 50.1166L265.649 53.6543ZM261.396 69.5234V75.5234H266L267.192 71.0766L261.396 69.5234ZM232.832 69.5234L227.039 67.9594L224.997 75.5234H232.832V69.5234ZM234.546 63.1758V57.1758H221.851V63.1758V69.1758H234.546V63.1758ZM221.851 63.1758L216.055 61.6226L203.296 109.23L209.092 110.783L214.887 112.336L227.646 64.729L221.851 63.1758ZM209.092 110.783V116.783H221.787V110.783V104.783H209.092V110.783ZM221.787 110.783L227.58 112.347L229.294 106L223.501 104.436L217.708 102.872L215.995 109.219L221.787 110.783ZM223.501 104.436V110.436H252.065V104.436V98.4355H223.501V104.436ZM252.065 104.436L246.27 102.882L242.017 118.751L247.812 120.305L253.608 121.858L257.861 105.989L252.065 104.436ZM247.812 120.305L244.101 115.591L227.978 128.286L231.689 133L235.401 137.714L251.524 125.019L247.812 120.305ZM231.689 133V127H187.256V133V139H231.689V133ZM187.256 133L192.102 129.462L182.834 116.767L177.988 120.305L173.142 123.842L182.41 136.538L187.256 133ZM177.988 120.305L183.784 121.856L201.621 55.2054L195.825 53.6543L190.029 52.1032L172.192 118.754L177.988 120.305ZM195.825 53.6543L199.537 58.3683L215.66 45.673L211.948 40.959L208.236 36.2449L192.113 48.9403L195.825 53.6543ZM211.948 40.959V46.959H256.382V40.959V34.959H211.948V40.959ZM256.382 40.959L251.536 44.4967L260.803 57.192L265.649 53.6543L270.496 50.1166L261.228 37.4213L256.382 40.959ZM265.649 53.6543L259.854 52.1011L255.601 67.9702L261.396 69.5234L267.192 71.0766L271.445 55.2075L265.649 53.6543ZM261.396 69.5234V63.5234H232.832V69.5234V75.5234H261.396V69.5234ZM232.832 69.5234L238.625 71.0874L240.338 64.7398L234.546 63.1758L228.753 61.6118L227.039 67.9594L232.832 69.5234ZM348.423 40.959L354.218 42.5153L356.247 34.959H348.423V40.959ZM342.456 63.1758V69.1758H347.057L348.251 64.7321L342.456 63.1758ZM320.239 63.1758V57.1758H315.636L314.444 61.6216L320.239 63.1758ZM301.514 133V139H306.117L307.309 134.554L301.514 133ZM272.949 133L267.154 131.446L265.128 139H272.949V133ZM291.675 63.1758L297.47 64.73L299.496 57.1758H291.675V63.1758ZM269.458 63.1758L263.663 61.6195L261.634 69.1758H269.458V63.1758ZM275.425 40.959V34.959H270.824L269.63 39.4027L275.425 40.959ZM348.423 40.959L342.628 39.4027L336.661 61.6195L342.456 63.1758L348.251 64.7321L354.218 42.5153L348.423 40.959ZM342.456 63.1758V57.1758H320.239V63.1758V69.1758H342.456V63.1758ZM320.239 63.1758L314.444 61.6216L295.718 131.446L301.514 133L307.309 134.554L326.034 64.73L320.239 63.1758ZM301.514 133V127H272.949V133V139H301.514V133ZM272.949 133L278.744 134.554L297.47 64.73L291.675 63.1758L285.88 61.6216L267.154 131.446L272.949 133ZM291.675 63.1758V57.1758H269.458V63.1758V69.1758H291.675V63.1758ZM269.458 63.1758L275.253 64.7321L281.219 42.5153L275.425 40.959L269.63 39.4027L263.663 61.6195L269.458 63.1758ZM275.425 40.959V46.959H348.423V40.959V34.959H275.425V40.959ZM382.954 101.262L388.752 102.804L378.191 97.6131L382.954 101.262ZM358.643 133V139H361.605L363.406 136.649L358.643 133ZM330.078 133L324.283 131.445L322.256 139H330.078V133ZM354.771 40.959V34.959H350.168L348.975 39.4043L354.771 40.959ZM383.335 40.959L389.129 42.5181L391.163 34.959H383.335V40.959ZM373.94 75.8711L368.147 74.312L378.816 79.3678L373.94 75.8711ZM398.887 41.0859L403.762 44.5826L404.04 44.1954L404.253 43.7692L398.887 41.0859ZM398.95 40.959V34.959H395.242L393.584 38.2757L398.95 40.959ZM427.769 40.959L433.564 42.5137L435.59 34.959H427.769V40.959ZM403.076 133V139H407.679L408.871 134.555L403.076 133ZM374.512 133L368.713 131.458L366.707 139H374.512V133ZM382.954 101.262L378.191 97.6131L353.879 129.351L358.643 133L363.406 136.649L387.717 104.91L382.954 101.262ZM358.643 133V127H330.078V133V139H358.643V133ZM330.078 133L335.873 134.555L360.566 42.5137L354.771 40.959L348.975 39.4043L324.283 131.445L330.078 133ZM354.771 40.959V46.959H383.335V40.959V34.959H354.771V40.959ZM383.335 40.959L377.541 39.3999L368.147 74.312L373.94 75.8711L379.734 77.4302L389.129 42.5181L383.335 40.959ZM373.94 75.8711L378.816 79.3678L403.762 44.5826L398.887 41.0859L394.011 37.5893L369.065 72.3744L373.94 75.8711ZM398.887 41.0859L404.253 43.7692L404.317 43.6423L398.95 40.959L393.584 38.2757L393.52 38.4027L398.887 41.0859ZM398.95 40.959V46.959H427.769V40.959V34.959H398.95V40.959ZM427.769 40.959L421.973 39.4043L397.281 131.445L403.076 133L408.871 134.555L433.564 42.5137L427.769 40.959ZM403.076 133V127H374.512V133V139H403.076V133ZM374.512 133L380.31 134.542L388.752 102.804L382.954 101.262L377.156 99.7194L368.713 131.458L374.512 133ZM453.413 75.8711L447.606 74.3613L445.654 81.8711H453.413V75.8711ZM465.981 75.8711V81.8711H470.576L471.774 77.4351L465.981 75.8711ZM469.409 63.1758L475.202 64.7398L477.244 57.1758H469.409V63.1758ZM456.714 63.1758V57.1758H452.074L450.907 61.666L456.714 63.1758ZM491.245 40.959L496.091 37.4213L494.294 34.959H491.245V40.959ZM500.513 53.6543L506.309 55.2048L507.05 52.4336L505.359 50.1166L500.513 53.6543ZM493.721 79.0449L497.368 83.8094L498.989 82.5682L499.517 80.5954L493.721 79.0449ZM483.438 86.916L479.791 82.1515L475.061 85.772L478.647 90.5282L483.438 86.916ZM489.468 94.9141L495.264 96.4645L496.02 93.6381L494.259 91.3019L489.468 94.9141ZM482.676 120.305L486.388 125.019L487.956 123.784L488.472 121.855L482.676 120.305ZM466.553 133V139H468.631L470.265 137.714L466.553 133ZM409.424 133L403.629 131.445L401.602 139H409.424V133ZM434.116 40.959V34.959H429.514L428.321 39.4043L434.116 40.959ZM443.955 110.783L438.168 109.2L436.093 116.783H443.955V110.783ZM456.65 110.783V116.783H461.245L462.443 112.347L456.65 110.783ZM460.078 98.0879L465.871 99.6519L467.902 92.1271L460.108 92.088L460.078 98.0879ZM447.446 98.0244L447.476 92.0245L442.874 92.0014L441.659 96.4408L447.446 98.0244ZM453.413 75.8711V81.8711H465.981V75.8711V69.8711H453.413V75.8711ZM465.981 75.8711L471.774 77.4351L475.202 64.7398L469.409 63.1758L463.617 61.6118L460.189 74.3071L465.981 75.8711ZM469.409 63.1758V57.1758H456.714V63.1758V69.1758H469.409V63.1758ZM456.714 63.1758L450.907 61.666L447.606 74.3613L453.413 75.8711L459.22 77.3809L462.521 64.6856L456.714 63.1758ZM491.245 40.959L486.399 44.4967L495.667 57.192L500.513 53.6543L505.359 50.1166L496.091 37.4213L491.245 40.959ZM500.513 53.6543L494.716 52.1038L487.924 77.4944L493.721 79.0449L499.517 80.5954L506.309 55.2048L500.513 53.6543ZM493.721 79.0449L490.074 74.2804L479.791 82.1515L483.438 86.916L487.084 91.6805L497.368 83.8094L493.721 79.0449ZM483.438 86.916L478.647 90.5282L484.677 98.5262L489.468 94.9141L494.259 91.3019L488.228 83.3039L483.438 86.916ZM489.468 94.9141L483.672 93.3636L476.88 118.754L482.676 120.305L488.472 121.855L495.264 96.4645L489.468 94.9141ZM482.676 120.305L478.964 115.591L462.841 128.286L466.553 133L470.265 137.714L486.388 125.019L482.676 120.305ZM466.553 133V127H409.424V133V139H466.553V133ZM409.424 133L415.219 134.555L439.911 42.5137L434.116 40.959L428.321 39.4043L403.629 131.445L409.424 133ZM434.116 40.959V46.959H491.245V40.959V34.959H434.116V40.959ZM443.955 110.783V116.783H456.65V110.783V104.783H443.955V110.783ZM456.65 110.783L462.443 112.347L465.871 99.6519L460.078 98.0879L454.286 96.5239L450.858 109.219L456.65 110.783ZM460.078 98.0879L460.108 92.088L447.476 92.0245L447.446 98.0244L447.416 104.024L460.048 104.088L460.078 98.0879ZM447.446 98.0244L441.659 96.4408L438.168 109.2L443.955 110.783L449.742 112.367L453.234 99.608L447.446 98.0244ZM517.397 126.652V120.652H513.722L512.052 123.926L517.397 126.652ZM514.16 133V139H517.835L519.505 135.726L514.16 133ZM485.596 133L480.25 130.276L475.803 139H485.596V133ZM532.505 40.959V34.959H528.829L527.159 38.2345L532.505 40.959ZM567.417 40.959L573.415 41.1203L573.581 34.959H567.417V40.959ZM564.941 133V139H570.782L570.939 133.161L564.941 133ZM536.377 133L530.38 132.82L530.194 139H536.377V133ZM536.567 126.652L542.565 126.832L542.75 120.652H536.567V126.652ZM537.139 104.436V110.436H542.988L543.137 104.588L537.139 104.436ZM537.583 86.9795L543.581 87.1322L532.228 84.2729L537.583 86.9795ZM528.76 104.436L523.405 101.729L519.004 110.436H528.76V104.436ZM517.397 126.652L512.052 123.926L508.815 130.274L514.16 133L519.505 135.726L522.742 129.378L517.397 126.652ZM514.16 133V127H485.596V133V139H514.16V133ZM485.596 133L490.941 135.724L537.851 43.6835L532.505 40.959L527.159 38.2345L480.25 130.276L485.596 133ZM532.505 40.959V46.959H567.417V40.959V34.959H532.505V40.959ZM567.417 40.959L561.419 40.7977L558.944 132.839L564.941 133L570.939 133.161L573.415 41.1203L567.417 40.959ZM564.941 133V127H536.377V133V139H564.941V133ZM536.377 133L542.374 133.18L542.565 126.832L536.567 126.652L530.57 126.472L530.38 132.82L536.377 133ZM536.567 126.652V120.652H517.397V126.652V132.652H536.567V126.652ZM537.139 104.436L543.137 104.588L543.581 87.1322L537.583 86.9795L531.585 86.8268L531.141 104.283L537.139 104.436ZM537.583 86.9795L532.228 84.2729L523.405 101.729L528.76 104.436L534.115 107.142L542.938 89.6861L537.583 86.9795ZM528.76 104.436V110.436H537.139V104.436V98.4355H528.76V104.436ZM599.854 133V139H604.456L605.649 134.554L599.854 133ZM571.289 133L565.494 131.447L563.469 139H571.289V133ZM592.554 53.6543L588.842 48.9403L587.275 50.1743L586.758 52.1011L592.554 53.6543ZM608.677 40.959V34.959H606.598L604.965 36.2449L608.677 40.959ZM665.806 40.959L671.601 42.5137L673.627 34.959H665.806V40.959ZM641.113 133V139H645.716L646.908 134.555L641.113 133ZM612.549 133L606.754 131.446L604.728 139H612.549V133ZM631.274 63.1758L637.07 64.73L639.096 57.1758H631.274V63.1758ZM618.579 63.1758V57.1758H613.976L612.784 61.6216L618.579 63.1758ZM599.854 133V127H571.289V133V139H599.854V133ZM571.289 133L577.085 134.553L598.349 55.2075L592.554 53.6543L586.758 52.1011L565.494 131.447L571.289 133ZM592.554 53.6543L596.266 58.3683L612.389 45.673L608.677 40.959L604.965 36.2449L588.842 48.9403L592.554 53.6543ZM608.677 40.959V46.959H665.806V40.959V34.959H608.677V40.959ZM665.806 40.959L660.011 39.4043L635.318 131.445L641.113 133L646.908 134.555L671.601 42.5137L665.806 40.959ZM641.113 133V127H612.549V133V139H641.113V133ZM612.549 133L618.344 134.554L637.07 64.73L631.274 63.1758L625.479 61.6216L606.754 131.446L612.549 133ZM631.274 63.1758V57.1758H618.579V63.1758V69.1758H631.274V63.1758ZM618.579 63.1758L612.784 61.6216L594.058 131.446L599.854 133L605.649 134.554L624.374 64.73L618.579 63.1758ZM694.688 110.783V116.783H699.305L700.487 112.32L694.688 110.783ZM698.052 98.0879L703.852 99.6248L705.849 92.0879H698.052V98.0879ZM685.356 98.0879V92.0879H680.739L679.557 96.5509L685.356 98.0879ZM681.992 110.783L676.192 109.246L674.195 116.783H681.992V110.783ZM691.323 75.8711L685.529 74.312L683.495 81.8711H691.323V75.8711ZM719.888 75.8711L724.722 72.3177L722.924 69.8711H719.888V75.8711ZM729.219 88.5664L735.014 90.1196L735.76 87.3355L734.053 85.013L729.219 88.5664ZM720.713 120.305L724.425 125.019L725.992 123.785L726.508 121.858L720.713 120.305ZM704.59 133V139H706.669L708.302 137.714L704.59 133ZM647.461 133L641.666 131.445L639.639 139H647.461V133ZM672.153 40.959V34.959H667.551L666.358 39.4043L672.153 40.959ZM700.718 40.959L706.512 42.5181L708.546 34.959H700.718V40.959ZM694.688 110.783L700.487 112.32L703.852 99.6248L698.052 98.0879L692.252 96.5509L688.888 109.246L694.688 110.783ZM698.052 98.0879V92.0879H685.356V98.0879V104.088H698.052V98.0879ZM685.356 98.0879L679.557 96.5509L676.192 109.246L681.992 110.783L687.792 112.32L691.156 99.6248L685.356 98.0879ZM681.992 110.783V116.783H694.688V110.783V104.783H681.992V110.783ZM691.323 75.8711V81.8711H719.888V75.8711V69.8711H691.323V75.8711ZM719.888 75.8711L715.053 79.4245L724.384 92.1198L729.219 88.5664L734.053 85.013L724.722 72.3177L719.888 75.8711ZM729.219 88.5664L723.423 87.0132L714.917 118.751L720.713 120.305L726.508 121.858L735.014 90.1196L729.219 88.5664ZM720.713 120.305L717.001 115.591L700.878 128.286L704.59 133L708.302 137.714L724.425 125.019L720.713 120.305ZM704.59 133V127H647.461V133V139H704.59V133ZM647.461 133L653.256 134.555L677.948 42.5137L672.153 40.959L666.358 39.4043L641.666 131.445L647.461 133ZM672.153 40.959V46.959H700.718V40.959V34.959H672.153V40.959ZM700.718 40.959L694.924 39.3999L685.529 74.312L691.323 75.8711L697.117 77.4302L706.512 42.5181L700.718 40.959Z" fill="black" mask="url(#path-1-outside-1_47_149)"/>
</g>
<g filter="url(#filter1_d_47_149)">
<mask id="path-3-outside-2_47_149" maskUnits="userSpaceOnUse" x="273" y="172" width="900" height="105" fill="black">
<rect fill="white" x="273" y="172" width="900" height="105"/>
<path d="M360.69 178.959L354.724 201.176H332.507L313.781 271H285.217L303.942 201.176H281.726L287.692 178.959H360.69ZM389.636 201.176L386.208 213.871H427.404L421.501 236.088H380.368L376.877 248.783H418.137L412.17 271H355.041L345.773 258.305L363.61 191.654L379.733 178.959H436.862L430.896 201.176H389.636ZM454.636 224.979L443.21 178.959H474.948L478.757 194.32L490.817 178.959H522.556L486.374 224.979L497.863 271H466.125L462.316 255.639L450.256 271H418.518L454.636 224.979ZM542.17 236.088L532.775 271H504.211L528.903 178.959H557.468L548.073 213.871H563.942L573.337 178.959H601.901L577.209 271H548.645L557.976 236.088H542.17ZM636.433 239.262L612.121 271H583.557L608.249 178.959H636.813L627.419 213.871L652.365 179.086L652.429 178.959H681.247L656.555 271H627.99L636.433 239.262ZM684.929 236.088L675.661 223.393L687.595 178.959H716.159L706.765 213.871H722.634L732.028 178.959H760.593L735.9 271H707.336L716.667 236.088H684.929ZM789.538 201.176L786.11 213.871H827.307L821.403 236.088H780.271L776.779 248.783H818.039L812.072 271H754.943L745.676 258.305L763.513 191.654L779.636 178.959H836.765L830.798 201.176H789.538ZM878.405 201.176H865.71L852.951 248.783H865.646L867.36 242.436H895.925L891.672 258.305L875.549 271H831.115L821.848 258.305L839.685 191.654L855.808 178.959H900.241L909.509 191.654L905.256 207.523H876.691L878.405 201.176ZM938.708 212.982L963.718 178.959H995.456L960.48 226.566L970.764 271H939.025L931.662 239.262L923.156 271H894.592L919.284 178.959H947.849L938.708 212.982ZM1029.99 239.262L1005.68 271H977.111L1001.8 178.959H1030.37L1020.97 213.871L1045.92 179.086L1045.98 178.959H1074.8L1050.11 271H1021.54L1029.99 239.262ZM1092.58 224.979L1081.15 178.959H1112.89L1116.7 194.32L1128.76 178.959H1160.5L1124.31 224.979L1135.8 271H1104.06L1100.26 255.639L1088.2 271H1056.46L1092.58 224.979Z"/>
</mask>
<path d="M360.69 178.959L354.724 201.176H332.507L313.781 271H285.217L303.942 201.176H281.726L287.692 178.959H360.69ZM389.636 201.176L386.208 213.871H427.404L421.501 236.088H380.368L376.877 248.783H418.137L412.17 271H355.041L345.773 258.305L363.61 191.654L379.733 178.959H436.862L430.896 201.176H389.636ZM454.636 224.979L443.21 178.959H474.948L478.757 194.32L490.817 178.959H522.556L486.374 224.979L497.863 271H466.125L462.316 255.639L450.256 271H418.518L454.636 224.979ZM542.17 236.088L532.775 271H504.211L528.903 178.959H557.468L548.073 213.871H563.942L573.337 178.959H601.901L577.209 271H548.645L557.976 236.088H542.17ZM636.433 239.262L612.121 271H583.557L608.249 178.959H636.813L627.419 213.871L652.365 179.086L652.429 178.959H681.247L656.555 271H627.99L636.433 239.262ZM684.929 236.088L675.661 223.393L687.595 178.959H716.159L706.765 213.871H722.634L732.028 178.959H760.593L735.9 271H707.336L716.667 236.088H684.929ZM789.538 201.176L786.11 213.871H827.307L821.403 236.088H780.271L776.779 248.783H818.039L812.072 271H754.943L745.676 258.305L763.513 191.654L779.636 178.959H836.765L830.798 201.176H789.538ZM878.405 201.176H865.71L852.951 248.783H865.646L867.36 242.436H895.925L891.672 258.305L875.549 271H831.115L821.848 258.305L839.685 191.654L855.808 178.959H900.241L909.509 191.654L905.256 207.523H876.691L878.405 201.176ZM938.708 212.982L963.718 178.959H995.456L960.48 226.566L970.764 271H939.025L931.662 239.262L923.156 271H894.592L919.284 178.959H947.849L938.708 212.982ZM1029.99 239.262L1005.68 271H977.111L1001.8 178.959H1030.37L1020.97 213.871L1045.92 179.086L1045.98 178.959H1074.8L1050.11 271H1021.54L1029.99 239.262ZM1092.58 224.979L1081.15 178.959H1112.89L1116.7 194.32L1128.76 178.959H1160.5L1124.31 224.979L1135.8 271H1104.06L1100.26 255.639L1088.2 271H1056.46L1092.58 224.979Z" fill="white"/>
<path d="M360.69 178.959L366.485 180.515L368.514 172.959H360.69V178.959ZM354.724 201.176V207.176H359.325L360.518 202.732L354.724 201.176ZM332.507 201.176V195.176H327.904L326.712 199.622L332.507 201.176ZM313.781 271V277H318.384L319.576 272.554L313.781 271ZM285.217 271L279.422 269.446L277.396 277H285.217V271ZM303.942 201.176L309.738 202.73L311.763 195.176H303.942V201.176ZM281.726 201.176L275.931 199.62L273.902 207.176H281.726V201.176ZM287.692 178.959V172.959H283.091L281.898 177.403L287.692 178.959ZM360.69 178.959L354.896 177.403L348.929 199.62L354.724 201.176L360.518 202.732L366.485 180.515L360.69 178.959ZM354.724 201.176V195.176H332.507V201.176V207.176H354.724V201.176ZM332.507 201.176L326.712 199.622L307.986 269.446L313.781 271L319.576 272.554L338.302 202.73L332.507 201.176ZM313.781 271V265H285.217V271V277H313.781V271ZM285.217 271L291.012 272.554L309.738 202.73L303.942 201.176L298.147 199.622L279.422 269.446L285.217 271ZM303.942 201.176V195.176H281.726V201.176V207.176H303.942V201.176ZM281.726 201.176L287.52 202.732L293.487 180.515L287.692 178.959L281.898 177.403L275.931 199.62L281.726 201.176ZM287.692 178.959V184.959H360.69V178.959V172.959H287.692V178.959ZM389.636 201.176V195.176H385.041L383.843 199.612L389.636 201.176ZM386.208 213.871L380.415 212.307L378.373 219.871H386.208V213.871ZM427.404 213.871L433.203 215.412L435.207 207.871H427.404V213.871ZM421.501 236.088V242.088H426.115L427.3 237.629L421.501 236.088ZM380.368 236.088V230.088H375.795L374.583 234.497L380.368 236.088ZM376.877 248.783L371.092 247.192L369.004 254.783H376.877V248.783ZM418.137 248.783L423.931 250.339L425.961 242.783H418.137V248.783ZM412.17 271V277H416.771L417.965 272.556L412.17 271ZM355.041 271L350.195 274.538L351.992 277H355.041V271ZM345.773 258.305L339.977 256.754L339.236 259.525L340.927 261.842L345.773 258.305ZM363.61 191.654L359.899 186.94L358.33 188.175L357.814 190.103L363.61 191.654ZM379.733 178.959V172.959H377.655L376.022 174.245L379.733 178.959ZM436.862 178.959L442.657 180.515L444.686 172.959H436.862V178.959ZM430.896 201.176V207.176H435.497L436.69 202.732L430.896 201.176ZM389.636 201.176L383.843 199.612L380.415 212.307L386.208 213.871L392.001 215.435L395.428 202.74L389.636 201.176ZM386.208 213.871V219.871H427.404V213.871V207.871H386.208V213.871ZM427.404 213.871L421.606 212.33L415.702 234.547L421.501 236.088L427.3 237.629L433.203 215.412L427.404 213.871ZM421.501 236.088V230.088H380.368V236.088V242.088H421.501V236.088ZM380.368 236.088L374.583 234.497L371.092 247.192L376.877 248.783L382.662 250.374L386.153 237.679L380.368 236.088ZM376.877 248.783V254.783H418.137V248.783V242.783H376.877V248.783ZM418.137 248.783L412.342 247.227L406.375 269.444L412.17 271L417.965 272.556L423.931 250.339L418.137 248.783ZM412.17 271V265H355.041V271V277H412.17V271ZM355.041 271L359.887 267.462L350.62 254.767L345.773 258.305L340.927 261.842L350.195 274.538L355.041 271ZM345.773 258.305L351.569 259.856L369.406 193.205L363.61 191.654L357.814 190.103L339.977 256.754L345.773 258.305ZM363.61 191.654L367.322 196.368L383.445 183.673L379.733 178.959L376.022 174.245L359.899 186.94L363.61 191.654ZM379.733 178.959V184.959H436.862V178.959V172.959H379.733V178.959ZM436.862 178.959L431.068 177.403L425.101 199.62L430.896 201.176L436.69 202.732L442.657 180.515L436.862 178.959ZM430.896 201.176V195.176H389.636V201.176V207.176H430.896V201.176ZM454.636 224.979L459.356 228.684L461.165 226.378L460.459 223.534L454.636 224.979ZM443.21 178.959V172.959H435.538L437.387 180.405L443.21 178.959ZM474.948 178.959L480.772 177.515L479.642 172.959H474.948V178.959ZM478.757 194.32L472.933 195.764L475.89 207.688L483.476 198.026L478.757 194.32ZM490.817 178.959V172.959H487.9L486.098 175.254L490.817 178.959ZM522.556 178.959L527.272 182.667L534.905 172.959H522.556V178.959ZM486.374 224.979L481.657 221.271L479.841 223.581L480.553 226.433L486.374 224.979ZM497.863 271V277H505.545L503.685 269.547L497.863 271ZM466.125 271L460.301 272.444L461.431 277H466.125V271ZM462.316 255.639L468.14 254.195L465.184 242.271L457.597 251.933L462.316 255.639ZM450.256 271V277H453.173L454.975 274.705L450.256 271ZM418.518 271L413.798 267.296L406.181 277H418.518V271ZM454.636 224.979L460.459 223.534L449.033 177.513L443.21 178.959L437.387 180.405L448.813 226.425L454.636 224.979ZM443.21 178.959V184.959H474.948V178.959V172.959H443.21V178.959ZM474.948 178.959L469.125 180.403L472.933 195.764L478.757 194.32L484.581 192.876L480.772 177.515L474.948 178.959ZM478.757 194.32L483.476 198.026L495.537 182.664L490.817 178.959L486.098 175.254L474.038 190.615L478.757 194.32ZM490.817 178.959V184.959H522.556V178.959V172.959H490.817V178.959ZM522.556 178.959L517.839 175.251L481.657 221.271L486.374 224.979L491.091 228.688L527.272 182.667L522.556 178.959ZM486.374 224.979L480.553 226.433L492.042 272.453L497.863 271L503.685 269.547L492.195 223.526L486.374 224.979ZM497.863 271V265H466.125V271V277H497.863V271ZM466.125 271L471.949 269.556L468.14 254.195L462.316 255.639L456.493 257.083L460.301 272.444L466.125 271ZM462.316 255.639L457.597 251.933L445.537 267.295L450.256 271L454.975 274.705L467.036 259.344L462.316 255.639ZM450.256 271V265H418.518V271V277H450.256V271ZM418.518 271L423.238 274.704L459.356 228.684L454.636 224.979L449.916 221.275L413.798 267.296L418.518 271ZM542.17 236.088V230.088H537.571L536.376 234.529L542.17 236.088ZM532.775 271V277H537.374L538.569 272.559L532.775 271ZM504.211 271L498.416 269.445L496.389 277H504.211V271ZM528.903 178.959V172.959H524.301L523.108 177.404L528.903 178.959ZM557.468 178.959L563.262 180.518L565.296 172.959H557.468V178.959ZM548.073 213.871L542.279 212.312L540.245 219.871H548.073V213.871ZM563.942 213.871V219.871H568.541L569.736 215.43L563.942 213.871ZM573.337 178.959V172.959H568.738L567.543 177.4L573.337 178.959ZM601.901 178.959L607.696 180.514L609.723 172.959H601.901V178.959ZM577.209 271V277H581.811L583.004 272.555L577.209 271ZM548.645 271L542.848 269.451L540.83 277H548.645V271ZM557.976 236.088L563.772 237.637L565.79 230.088H557.976V236.088ZM542.17 236.088L536.376 234.529L526.982 269.441L532.775 271L538.569 272.559L547.964 237.647L542.17 236.088ZM532.775 271V265H504.211V271V277H532.775V271ZM504.211 271L510.006 272.555L534.698 180.514L528.903 178.959L523.108 177.404L498.416 269.445L504.211 271ZM528.903 178.959V184.959H557.468V178.959V172.959H528.903V178.959ZM557.468 178.959L551.674 177.4L542.279 212.312L548.073 213.871L553.867 215.43L563.262 180.518L557.468 178.959ZM548.073 213.871V219.871H563.942V213.871V207.871H548.073V213.871ZM563.942 213.871L569.736 215.43L579.131 180.518L573.337 178.959L567.543 177.4L558.148 212.312L563.942 213.871ZM573.337 178.959V184.959H601.901V178.959V172.959H573.337V178.959ZM601.901 178.959L596.106 177.404L571.414 269.445L577.209 271L583.004 272.555L607.696 180.514L601.901 178.959ZM577.209 271V265H548.645V271V277H577.209V271ZM548.645 271L554.441 272.549L563.772 237.637L557.976 236.088L552.179 234.539L542.848 269.451L548.645 271ZM557.976 236.088V230.088H542.17V236.088V242.088H557.976V236.088ZM636.433 239.262L642.231 240.804L631.669 235.613L636.433 239.262ZM612.121 271V277H615.083L616.884 274.649L612.121 271ZM583.557 271L577.762 269.445L575.735 277H583.557V271ZM608.249 178.959V172.959H603.647L602.454 177.404L608.249 178.959ZM636.813 178.959L642.607 180.518L644.641 172.959H636.813V178.959ZM627.419 213.871L621.625 212.312L632.295 217.368L627.419 213.871ZM652.365 179.086L657.241 182.583L657.519 182.195L657.732 181.769L652.365 179.086ZM652.429 178.959V172.959H648.721L647.062 176.276L652.429 178.959ZM681.247 178.959L687.042 180.514L689.069 172.959H681.247V178.959ZM656.555 271V277H661.157L662.35 272.555L656.555 271ZM627.99 271L622.192 269.458L620.186 277H627.99V271ZM636.433 239.262L631.669 235.613L607.358 267.351L612.121 271L616.884 274.649L641.196 242.91L636.433 239.262ZM612.121 271V265H583.557V271V277H612.121V271ZM583.557 271L589.352 272.555L614.044 180.514L608.249 178.959L602.454 177.404L577.762 269.445L583.557 271ZM608.249 178.959V184.959H636.813V178.959V172.959H608.249V178.959ZM636.813 178.959L631.02 177.4L621.625 212.312L627.419 213.871L633.213 215.43L642.607 180.518L636.813 178.959ZM627.419 213.871L632.295 217.368L657.241 182.583L652.365 179.086L647.489 175.589L622.543 210.374L627.419 213.871ZM652.365 179.086L657.732 181.769L657.795 181.642L652.429 178.959L647.062 176.276L646.999 176.403L652.365 179.086ZM652.429 178.959V184.959H681.247V178.959V172.959H652.429V178.959ZM681.247 178.959L675.452 177.404L650.76 269.445L656.555 271L662.35 272.555L687.042 180.514L681.247 178.959ZM656.555 271V265H627.99V271V277H656.555V271ZM627.99 271L633.789 272.542L642.231 240.804L636.433 239.262L630.634 237.719L622.192 269.458L627.99 271ZM684.929 236.088L680.083 239.626L681.88 242.088H684.929V236.088ZM675.661 223.393L669.866 221.836L669.121 224.61L670.815 226.93L675.661 223.393ZM687.595 178.959V172.959H682.994L681.8 177.403L687.595 178.959ZM716.159 178.959L721.953 180.518L723.987 172.959H716.159V178.959ZM706.765 213.871L700.971 212.312L698.937 219.871H706.765V213.871ZM722.634 213.871V219.871H727.233L728.428 215.43L722.634 213.871ZM732.028 178.959V172.959H727.429L726.234 177.4L732.028 178.959ZM760.593 178.959L766.388 180.514L768.415 172.959H760.593V178.959ZM735.9 271V277H740.503L741.695 272.555L735.9 271ZM707.336 271L701.539 269.451L699.522 277H707.336V271ZM716.667 236.088L722.464 237.637L724.481 230.088H716.667V236.088ZM684.929 236.088L689.775 232.55L680.507 219.855L675.661 223.393L670.815 226.93L680.083 239.626L684.929 236.088ZM675.661 223.393L681.456 224.949L693.389 180.515L687.595 178.959L681.8 177.403L669.866 221.836L675.661 223.393ZM687.595 178.959V184.959H716.159V178.959V172.959H687.595V178.959ZM716.159 178.959L710.365 177.4L700.971 212.312L706.765 213.871L712.559 215.43L721.953 180.518L716.159 178.959ZM706.765 213.871V219.871H722.634V213.871V207.871H706.765V213.871ZM722.634 213.871L728.428 215.43L737.822 180.518L732.028 178.959L726.234 177.4L716.84 212.312L722.634 213.871ZM732.028 178.959V184.959H760.593V178.959V172.959H732.028V178.959ZM760.593 178.959L754.798 177.404L730.105 269.445L735.9 271L741.695 272.555L766.388 180.514L760.593 178.959ZM735.9 271V265H707.336V271V277H735.9V271ZM707.336 271L713.132 272.549L722.464 237.637L716.667 236.088L710.87 234.539L701.539 269.451L707.336 271ZM716.667 236.088V230.088H684.929V236.088V242.088H716.667V236.088ZM789.538 201.176V195.176H784.943L783.745 199.612L789.538 201.176ZM786.11 213.871L780.318 212.307L778.276 219.871H786.11V213.871ZM827.307 213.871L833.105 215.412L835.109 207.871H827.307V213.871ZM821.403 236.088V242.088H826.017L827.202 237.629L821.403 236.088ZM780.271 236.088V230.088H775.698L774.485 234.497L780.271 236.088ZM776.779 248.783L770.994 247.192L768.907 254.783H776.779V248.783ZM818.039 248.783L823.834 250.339L825.863 242.783H818.039V248.783ZM812.072 271V277H816.673L817.867 272.556L812.072 271ZM754.943 271L750.097 274.538L751.895 277H754.943V271ZM745.676 258.305L739.88 256.754L739.138 259.525L740.83 261.842L745.676 258.305ZM763.513 191.654L759.801 186.94L758.233 188.175L757.717 190.103L763.513 191.654ZM779.636 178.959V172.959H777.557L775.924 174.245L779.636 178.959ZM836.765 178.959L842.559 180.515L844.589 172.959H836.765V178.959ZM830.798 201.176V207.176H835.399L836.593 202.732L830.798 201.176ZM789.538 201.176L783.745 199.612L780.318 212.307L786.11 213.871L791.903 215.435L795.331 202.74L789.538 201.176ZM786.11 213.871V219.871H827.307V213.871V207.871H786.11V213.871ZM827.307 213.871L821.508 212.33L815.605 234.547L821.403 236.088L827.202 237.629L833.105 215.412L827.307 213.871ZM821.403 236.088V230.088H780.271V236.088V242.088H821.403V236.088ZM780.271 236.088L774.485 234.497L770.994 247.192L776.779 248.783L782.565 250.374L786.056 237.679L780.271 236.088ZM776.779 248.783V254.783H818.039V248.783V242.783H776.779V248.783ZM818.039 248.783L812.244 247.227L806.278 269.444L812.072 271L817.867 272.556L823.834 250.339L818.039 248.783ZM812.072 271V265H754.943V271V277H812.072V271ZM754.943 271L759.789 267.462L750.522 254.767L745.676 258.305L740.83 261.842L750.097 274.538L754.943 271ZM745.676 258.305L751.472 259.856L769.309 193.205L763.513 191.654L757.717 190.103L739.88 256.754L745.676 258.305ZM763.513 191.654L767.225 196.368L783.348 183.673L779.636 178.959L775.924 174.245L759.801 186.94L763.513 191.654ZM779.636 178.959V184.959H836.765V178.959V172.959H779.636V178.959ZM836.765 178.959L830.97 177.403L825.003 199.62L830.798 201.176L836.593 202.732L842.559 180.515L836.765 178.959ZM830.798 201.176V195.176H789.538V201.176V207.176H830.798V201.176ZM878.405 201.176L884.198 202.74L886.24 195.176H878.405V201.176ZM865.71 201.176V195.176H861.106L859.914 199.623L865.71 201.176ZM852.951 248.783L847.156 247.23L845.131 254.783H852.951V248.783ZM865.646 248.783V254.783H870.241L871.439 250.347L865.646 248.783ZM867.36 242.436V236.436H862.766L861.568 240.872L867.36 242.436ZM895.925 242.436L901.72 243.989L903.745 236.436H895.925V242.436ZM891.672 258.305L895.384 263.019L896.951 261.785L897.467 259.858L891.672 258.305ZM875.549 271V277H877.628L879.261 275.714L875.549 271ZM831.115 271L826.269 274.538L828.067 277H831.115V271ZM821.848 258.305L816.052 256.754L815.31 259.525L817.002 261.842L821.848 258.305ZM839.685 191.654L835.973 186.94L834.405 188.175L833.889 190.103L839.685 191.654ZM855.808 178.959V172.959H853.729L852.096 174.245L855.808 178.959ZM900.241 178.959L905.087 175.421L903.29 172.959H900.241V178.959ZM909.509 191.654L915.304 193.207L916.047 190.435L914.355 188.117L909.509 191.654ZM905.256 207.523V213.523H909.86L911.051 209.077L905.256 207.523ZM876.691 207.523L870.899 205.959L868.857 213.523H876.691V207.523ZM878.405 201.176V195.176H865.71V201.176V207.176H878.405V201.176ZM865.71 201.176L859.914 199.623L847.156 247.23L852.951 248.783L858.747 250.336L871.505 202.729L865.71 201.176ZM852.951 248.783V254.783H865.646V248.783V242.783H852.951V248.783ZM865.646 248.783L871.439 250.347L873.153 244L867.36 242.436L861.568 240.872L859.854 247.219L865.646 248.783ZM867.36 242.436V248.436H895.925V242.436V236.436H867.36V242.436ZM895.925 242.436L890.129 240.882L885.876 256.751L891.672 258.305L897.467 259.858L901.72 243.989L895.925 242.436ZM891.672 258.305L887.96 253.591L871.837 266.286L875.549 271L879.261 275.714L895.384 263.019L891.672 258.305ZM875.549 271V265H831.115V271V277H875.549V271ZM831.115 271L835.961 267.462L826.694 254.767L821.848 258.305L817.002 261.842L826.269 274.538L831.115 271ZM821.848 258.305L827.644 259.856L845.481 193.205L839.685 191.654L833.889 190.103L816.052 256.754L821.848 258.305ZM839.685 191.654L843.396 196.368L859.519 183.673L855.808 178.959L852.096 174.245L835.973 186.94L839.685 191.654ZM855.808 178.959V184.959H900.241V178.959V172.959H855.808V178.959ZM900.241 178.959L895.395 182.497L904.663 195.192L909.509 191.654L914.355 188.117L905.087 175.421L900.241 178.959ZM909.509 191.654L903.713 190.101L899.46 205.97L905.256 207.523L911.051 209.077L915.304 193.207L909.509 191.654ZM905.256 207.523V201.523H876.691V207.523V213.523H905.256V207.523ZM876.691 207.523L882.484 209.087L884.198 202.74L878.405 201.176L872.613 199.612L870.899 205.959L876.691 207.523ZM938.708 212.982L932.913 211.426L943.542 216.536L938.708 212.982ZM963.718 178.959V172.959H960.682L958.883 175.405L963.718 178.959ZM995.456 178.959L1000.29 182.511L1007.31 172.959H995.456V178.959ZM960.48 226.566L955.645 223.014L954.014 225.235L954.635 227.919L960.48 226.566ZM970.764 271V277H978.311L976.609 269.647L970.764 271ZM939.025 271L933.181 272.356L934.258 277H939.025V271ZM931.662 239.262L937.507 237.906L925.867 237.709L931.662 239.262ZM923.156 271V277H927.76L928.952 272.553L923.156 271ZM894.592 271L888.797 269.445L886.77 277H894.592V271ZM919.284 178.959V172.959H914.682L913.489 177.404L919.284 178.959ZM947.849 178.959L953.643 180.516L955.673 172.959H947.849V178.959ZM938.708 212.982L943.542 216.536L968.552 182.513L963.718 178.959L958.883 175.405L933.874 209.429L938.708 212.982ZM963.718 178.959V184.959H995.456V178.959V172.959H963.718V178.959ZM995.456 178.959L990.621 175.407L955.645 223.014L960.48 226.566L965.316 230.119L1000.29 182.511L995.456 178.959ZM960.48 226.566L954.635 227.919L964.918 272.353L970.764 271L976.609 269.647L966.326 225.214L960.48 226.566ZM970.764 271V265H939.025V271V277H970.764V271ZM939.025 271L944.87 269.644L937.507 237.906L931.662 239.262L925.817 240.618L933.181 272.356L939.025 271ZM931.662 239.262L925.867 237.709L917.361 269.447L923.156 271L928.952 272.553L937.458 240.815L931.662 239.262ZM923.156 271V265H894.592V271V277H923.156V271ZM894.592 271L900.387 272.555L925.079 180.514L919.284 178.959L913.489 177.404L888.797 269.445L894.592 271ZM919.284 178.959V184.959H947.849V178.959V172.959H919.284V178.959ZM947.849 178.959L942.054 177.402L932.913 211.426L938.708 212.982L944.503 214.539L953.643 180.516L947.849 178.959ZM1029.99 239.262L1035.79 240.804L1025.22 235.613L1029.99 239.262ZM1005.68 271V277H1008.64L1010.44 274.649L1005.68 271ZM977.111 271L971.316 269.445L969.289 277H977.111V271ZM1001.8 178.959V172.959H997.201L996.009 177.404L1001.8 178.959ZM1030.37 178.959L1036.16 180.518L1038.2 172.959H1030.37V178.959ZM1020.97 213.871L1015.18 212.312L1025.85 217.368L1020.97 213.871ZM1045.92 179.086L1050.8 182.583L1051.07 182.195L1051.29 181.769L1045.92 179.086ZM1045.98 178.959V172.959H1042.28L1040.62 176.276L1045.98 178.959ZM1074.8 178.959L1080.6 180.514L1082.62 172.959H1074.8V178.959ZM1050.11 271V277H1054.71L1055.9 272.555L1050.11 271ZM1021.54 271L1015.75 269.458L1013.74 277H1021.54V271ZM1029.99 239.262L1025.22 235.613L1000.91 267.351L1005.68 271L1010.44 274.649L1034.75 242.91L1029.99 239.262ZM1005.68 271V265H977.111V271V277H1005.68V271ZM977.111 271L982.906 272.555L1007.6 180.514L1001.8 178.959L996.009 177.404L971.316 269.445L977.111 271ZM1001.8 178.959V184.959H1030.37V178.959V172.959H1001.8V178.959ZM1030.37 178.959L1024.57 177.4L1015.18 212.312L1020.97 213.871L1026.77 215.43L1036.16 180.518L1030.37 178.959ZM1020.97 213.871L1025.85 217.368L1050.8 182.583L1045.92 179.086L1041.04 175.589L1016.1 210.374L1020.97 213.871ZM1045.92 179.086L1051.29 181.769L1051.35 181.642L1045.98 178.959L1040.62 176.276L1040.55 176.403L1045.92 179.086ZM1045.98 178.959V184.959H1074.8V178.959V172.959H1045.98V178.959ZM1074.8 178.959L1069.01 177.404L1044.31 269.445L1050.11 271L1055.9 272.555L1080.6 180.514L1074.8 178.959ZM1050.11 271V265H1021.54V271V277H1050.11V271ZM1021.54 271L1027.34 272.542L1035.79 240.804L1029.99 239.262L1024.19 237.719L1015.75 269.458L1021.54 271ZM1092.58 224.979L1097.3 228.684L1099.1 226.378L1098.4 223.534L1092.58 224.979ZM1081.15 178.959V172.959H1073.48L1075.33 180.405L1081.15 178.959ZM1112.89 178.959L1118.71 177.515L1117.58 172.959H1112.89V178.959ZM1116.7 194.32L1110.87 195.764L1113.83 207.688L1121.42 198.026L1116.7 194.32ZM1128.76 178.959V172.959H1125.84L1124.04 175.254L1128.76 178.959ZM1160.5 178.959L1165.21 182.667L1172.84 172.959H1160.5V178.959ZM1124.31 224.979L1119.6 221.271L1117.78 223.581L1118.49 226.433L1124.31 224.979ZM1135.8 271V277H1143.48L1141.62 269.547L1135.8 271ZM1104.06 271L1098.24 272.444L1099.37 277H1104.06V271ZM1100.26 255.639L1106.08 254.195L1103.12 242.271L1095.54 251.933L1100.26 255.639ZM1088.2 271V277H1091.11L1092.91 274.705L1088.2 271ZM1056.46 271L1051.74 267.296L1044.12 277H1056.46V271ZM1092.58 224.979L1098.4 223.534L1086.97 177.513L1081.15 178.959L1075.33 180.405L1086.75 226.425L1092.58 224.979ZM1081.15 178.959V184.959H1112.89V178.959V172.959H1081.15V178.959ZM1112.89 178.959L1107.06 180.403L1110.87 195.764L1116.7 194.32L1122.52 192.876L1118.71 177.515L1112.89 178.959ZM1116.7 194.32L1121.42 198.026L1133.48 182.664L1128.76 178.959L1124.04 175.254L1111.98 190.615L1116.7 194.32ZM1128.76 178.959V184.959H1160.5V178.959V172.959H1128.76V178.959ZM1160.5 178.959L1155.78 175.251L1119.6 221.271L1124.31 224.979L1129.03 228.688L1165.21 182.667L1160.5 178.959ZM1124.31 224.979L1118.49 226.433L1129.98 272.453L1135.8 271L1141.62 269.547L1130.13 223.526L1124.31 224.979ZM1135.8 271V265H1104.06V271V277H1135.8V271ZM1104.06 271L1109.89 269.556L1106.08 254.195L1100.26 255.639L1094.43 257.083L1098.24 272.444L1104.06 271ZM1100.26 255.639L1095.54 251.933L1083.48 267.295L1088.2 271L1092.91 274.705L1104.98 259.344L1100.26 255.639ZM1088.2 271V265H1056.46V271V277H1088.2V271ZM1056.46 271L1061.18 274.704L1097.3 228.684L1092.58 224.979L1087.86 221.275L1051.74 267.296L1056.46 271Z" fill="black" mask="url(#path-3-outside-2_47_149)"/>
</g>
<g filter="url(#filter2_d_47_149)">
<mask id="path-5-outside-3_47_149" maskUnits="userSpaceOnUse" x="68" y="306" width="924" height="121" fill="black">
<rect fill="white" x="68" y="306" width="924" height="121"/>
<path d="M119.989 347.871H132.558L135.985 335.176H123.29L119.989 347.871ZM157.821 312.959L167.089 325.654L160.297 351.045L150.014 358.916L156.044 366.914L149.252 392.305L133.129 405H76L100.692 312.959H157.821ZM110.531 382.783H123.227L126.654 370.088L114.022 370.024L110.531 382.783ZM205.048 373.262L180.736 405H152.172L176.864 312.959H205.429L196.034 347.871L220.98 313.086L221.044 312.959H249.862L225.17 405H196.605L205.048 373.262ZM314.037 405H244.213L265.478 325.654L281.728 312.959H338.729L314.037 405ZM291.439 382.783L304.198 335.176H291.503L278.744 382.783H291.439ZM322.479 420.869H303.437L312.768 385.957H331.811L322.479 420.869ZM246.308 420.869H227.265L236.596 385.957H255.639L246.308 420.869ZM406.332 392.305L390.209 405H345.775L336.508 392.305L354.345 325.654L370.595 312.959H414.901L424.169 325.654L406.332 392.305ZM380.307 382.783L393.065 335.176H380.37L367.611 382.783H380.307ZM453.241 347.871H465.81L469.237 335.176H456.542L453.241 347.871ZM491.073 312.959L500.341 325.654L493.549 351.045L483.266 358.916L489.296 366.914L482.504 392.305L466.381 405H409.252L433.944 312.959H491.073ZM443.783 382.783H456.479L459.906 370.088L447.274 370.024L443.783 382.783ZM579.179 335.176H566.483L553.725 382.783H566.42L568.134 376.436H596.698L592.445 392.305L576.322 405H531.889L522.621 392.305L540.458 325.654L556.581 312.959H601.015L610.282 325.654L606.029 341.523H577.465L579.179 335.176ZM623.93 405H595.365L620.058 312.959H677.187L686.454 325.654L665.189 405H636.625L655.351 335.176H642.655L623.93 405ZM744.789 392.305L728.666 405H684.232L674.965 392.305L692.802 325.654L709.052 312.959H753.358L762.626 325.654L744.789 392.305ZM718.764 382.783L731.522 335.176H718.827L706.068 382.783H718.764ZM807.694 335.176H794.999L791.571 347.871H804.267L807.694 335.176ZM785.604 370.088L776.273 405H747.709L772.401 312.959H829.53L838.798 325.654L830.292 357.393L814.169 370.088H785.604ZM921.571 312.959L915.604 335.176H893.388L874.662 405H846.098L864.823 335.176H842.606L848.573 312.959H921.571ZM935.028 398.652L931.791 405H903.227L950.136 312.959H985.048L982.572 405H954.008L954.198 398.652H935.028ZM954.77 376.436L955.214 358.979L946.391 376.436H954.77Z"/>
</mask>
<path d="M119.989 347.871H132.558L135.985 335.176H123.29L119.989 347.871ZM157.821 312.959L167.089 325.654L160.297 351.045L150.014 358.916L156.044 366.914L149.252 392.305L133.129 405H76L100.692 312.959H157.821ZM110.531 382.783H123.227L126.654 370.088L114.022 370.024L110.531 382.783ZM205.048 373.262L180.736 405H152.172L176.864 312.959H205.429L196.034 347.871L220.98 313.086L221.044 312.959H249.862L225.17 405H196.605L205.048 373.262ZM314.037 405H244.213L265.478 325.654L281.728 312.959H338.729L314.037 405ZM291.439 382.783L304.198 335.176H291.503L278.744 382.783H291.439ZM322.479 420.869H303.437L312.768 385.957H331.811L322.479 420.869ZM246.308 420.869H227.265L236.596 385.957H255.639L246.308 420.869ZM406.332 392.305L390.209 405H345.775L336.508 392.305L354.345 325.654L370.595 312.959H414.901L424.169 325.654L406.332 392.305ZM380.307 382.783L393.065 335.176H380.37L367.611 382.783H380.307ZM453.241 347.871H465.81L469.237 335.176H456.542L453.241 347.871ZM491.073 312.959L500.341 325.654L493.549 351.045L483.266 358.916L489.296 366.914L482.504 392.305L466.381 405H409.252L433.944 312.959H491.073ZM443.783 382.783H456.479L459.906 370.088L447.274 370.024L443.783 382.783ZM579.179 335.176H566.483L553.725 382.783H566.42L568.134 376.436H596.698L592.445 392.305L576.322 405H531.889L522.621 392.305L540.458 325.654L556.581 312.959H601.015L610.282 325.654L606.029 341.523H577.465L579.179 335.176ZM623.93 405H595.365L620.058 312.959H677.187L686.454 325.654L665.189 405H636.625L655.351 335.176H642.655L623.93 405ZM744.789 392.305L728.666 405H684.232L674.965 392.305L692.802 325.654L709.052 312.959H753.358L762.626 325.654L744.789 392.305ZM718.764 382.783L731.522 335.176H718.827L706.068 382.783H718.764ZM807.694 335.176H794.999L791.571 347.871H804.267L807.694 335.176ZM785.604 370.088L776.273 405H747.709L772.401 312.959H829.53L838.798 325.654L830.292 357.393L814.169 370.088H785.604ZM921.571 312.959L915.604 335.176H893.388L874.662 405H846.098L864.823 335.176H842.606L848.573 312.959H921.571ZM935.028 398.652L931.791 405H903.227L950.136 312.959H985.048L982.572 405H954.008L954.198 398.652H935.028ZM954.77 376.436L955.214 358.979L946.391 376.436H954.77Z" fill="white"/>
<path d="M119.989 347.871L114.182 346.361L112.23 353.871H119.989V347.871ZM132.558 347.871V353.871H137.152L138.35 349.435L132.558 347.871ZM135.985 335.176L141.778 336.74L143.82 329.176H135.985V335.176ZM123.29 335.176V329.176H118.651L117.483 333.666L123.29 335.176ZM157.821 312.959L162.667 309.421L160.87 306.959H157.821V312.959ZM167.089 325.654L172.885 327.205L173.626 324.434L171.935 322.117L167.089 325.654ZM160.297 351.045L163.944 355.809L165.565 354.568L166.093 352.595L160.297 351.045ZM150.014 358.916L146.367 354.152L141.637 357.772L145.223 362.528L150.014 358.916ZM156.044 366.914L161.84 368.465L162.596 365.638L160.835 363.302L156.044 366.914ZM149.252 392.305L152.964 397.019L154.532 395.784L155.048 393.855L149.252 392.305ZM133.129 405V411H135.208L136.841 409.714L133.129 405ZM76 405L70.2049 403.445L68.1782 411H76V405ZM100.692 312.959V306.959H96.0899L94.8973 311.404L100.692 312.959ZM110.531 382.783L104.744 381.2L102.669 388.783H110.531V382.783ZM123.227 382.783V388.783H127.821L129.019 384.347L123.227 382.783ZM126.654 370.088L132.447 371.652L134.479 364.127L126.684 364.088L126.654 370.088ZM114.022 370.024L114.053 364.024L109.45 364.001L108.235 368.441L114.022 370.024ZM119.989 347.871V353.871H132.558V347.871V341.871H119.989V347.871ZM132.558 347.871L138.35 349.435L141.778 336.74L135.985 335.176L130.193 333.612L126.765 346.307L132.558 347.871ZM135.985 335.176V329.176H123.29V335.176V341.176H135.985V335.176ZM123.29 335.176L117.483 333.666L114.182 346.361L119.989 347.871L125.796 349.381L129.097 336.686L123.29 335.176ZM157.821 312.959L152.975 316.497L162.243 329.192L167.089 325.654L171.935 322.117L162.667 309.421L157.821 312.959ZM167.089 325.654L161.293 324.104L154.501 349.494L160.297 351.045L166.093 352.595L172.885 327.205L167.089 325.654ZM160.297 351.045L156.65 346.28L146.367 354.152L150.014 358.916L153.661 363.68L163.944 355.809L160.297 351.045ZM150.014 358.916L145.223 362.528L151.253 370.526L156.044 366.914L160.835 363.302L154.805 355.304L150.014 358.916ZM156.044 366.914L150.248 365.364L143.456 390.754L149.252 392.305L155.048 393.855L161.84 368.465L156.044 366.914ZM149.252 392.305L145.54 387.591L129.417 400.286L133.129 405L136.841 409.714L152.964 397.019L149.252 392.305ZM133.129 405V399H76V405V411H133.129V405ZM76 405L81.7951 406.555L106.487 314.514L100.692 312.959L94.8973 311.404L70.2049 403.445L76 405ZM100.692 312.959V318.959H157.821V312.959V306.959H100.692V312.959ZM110.531 382.783V388.783H123.227V382.783V376.783H110.531V382.783ZM123.227 382.783L129.019 384.347L132.447 371.652L126.654 370.088L120.862 368.524L117.434 381.219L123.227 382.783ZM126.654 370.088L126.684 364.088L114.053 364.024L114.022 370.024L113.992 376.024L126.624 376.088L126.654 370.088ZM114.022 370.024L108.235 368.441L104.744 381.2L110.531 382.783L116.319 384.367L119.81 371.608L114.022 370.024ZM205.048 373.262L210.846 374.804L200.285 369.613L205.048 373.262ZM180.736 405V411H183.698L185.499 408.649L180.736 405ZM152.172 405L146.377 403.445L144.35 411H152.172V405ZM176.864 312.959V306.959H172.262L171.069 311.404L176.864 312.959ZM205.429 312.959L211.223 314.518L213.257 306.959H205.429V312.959ZM196.034 347.871L190.24 346.312L200.91 351.368L196.034 347.871ZM220.98 313.086L225.856 316.583L226.134 316.195L226.347 315.769L220.98 313.086ZM221.044 312.959V306.959H217.336L215.677 310.276L221.044 312.959ZM249.862 312.959L255.657 314.514L257.684 306.959H249.862V312.959ZM225.17 405V411H229.772L230.965 406.555L225.17 405ZM196.605 405L190.807 403.458L188.801 411H196.605V405ZM205.048 373.262L200.285 369.613L175.973 401.351L180.736 405L185.499 408.649L209.811 376.91L205.048 373.262ZM180.736 405V399H152.172V405V411H180.736V405ZM152.172 405L157.967 406.555L182.659 314.514L176.864 312.959L171.069 311.404L146.377 403.445L152.172 405ZM176.864 312.959V318.959H205.429V312.959V306.959H176.864V312.959ZM205.429 312.959L199.635 311.4L190.24 346.312L196.034 347.871L201.828 349.43L211.223 314.518L205.429 312.959ZM196.034 347.871L200.91 351.368L225.856 316.583L220.98 313.086L216.105 309.589L191.158 344.374L196.034 347.871ZM220.98 313.086L226.347 315.769L226.411 315.642L221.044 312.959L215.677 310.276L215.614 310.403L220.98 313.086ZM221.044 312.959V318.959H249.862V312.959V306.959H221.044V312.959ZM249.862 312.959L244.067 311.404L219.375 403.445L225.17 405L230.965 406.555L255.657 314.514L249.862 312.959ZM225.17 405V399H196.605V405V411H225.17V405ZM196.605 405L202.404 406.542L210.846 374.804L205.048 373.262L199.249 371.719L190.807 403.458L196.605 405ZM314.037 405V411H318.64L319.832 406.555L314.037 405ZM244.213 405L238.417 403.447L236.393 411H244.213V405ZM265.478 325.654L261.784 320.926L260.202 322.162L259.682 324.101L265.478 325.654ZM281.728 312.959V306.959H279.662L278.034 308.231L281.728 312.959ZM338.729 312.959L344.525 314.514L346.551 306.959H338.729V312.959ZM291.439 382.783V388.783H296.043L297.235 384.336L291.439 382.783ZM304.198 335.176L309.994 336.729L312.018 329.176H304.198V335.176ZM291.503 335.176V329.176H286.899L285.707 333.623L291.503 335.176ZM278.744 382.783L272.949 381.23L270.924 388.783H278.744V382.783ZM322.479 420.869V426.869H327.086L328.276 422.418L322.479 420.869ZM303.437 420.869L297.64 419.32L295.622 426.869H303.437V420.869ZM312.768 385.957V379.957H308.161L306.971 384.408L312.768 385.957ZM331.811 385.957L337.607 387.506L339.625 379.957H331.811V385.957ZM246.308 420.869V426.869H250.915L252.104 422.418L246.308 420.869ZM227.265 420.869L221.468 419.32L219.45 426.869H227.265V420.869ZM236.596 385.957V379.957H231.989L230.799 384.408L236.596 385.957ZM255.639 385.957L261.435 387.506L263.453 379.957H255.639V385.957ZM314.037 405V399H244.213V405V411H314.037V405ZM244.213 405L250.008 406.553L271.273 327.207L265.478 325.654L259.682 324.101L238.417 403.447L244.213 405ZM265.478 325.654L269.171 330.382L285.421 317.687L281.728 312.959L278.034 308.231L261.784 320.926L265.478 325.654ZM281.728 312.959V318.959H338.729V312.959V306.959H281.728V312.959ZM338.729 312.959L332.934 311.404L308.242 403.445L314.037 405L319.832 406.555L344.525 314.514L338.729 312.959ZM291.439 382.783L297.235 384.336L309.994 336.729L304.198 335.176L298.403 333.623L285.644 381.23L291.439 382.783ZM304.198 335.176V329.176H291.503V335.176V341.176H304.198V335.176ZM291.503 335.176L285.707 333.623L272.949 381.23L278.744 382.783L284.54 384.336L297.298 336.729L291.503 335.176ZM278.744 382.783V388.783H291.439V382.783V376.783H278.744V382.783ZM322.479 420.869V414.869H303.437V420.869V426.869H322.479V420.869ZM303.437 420.869L309.233 422.418L318.564 387.506L312.768 385.957L306.971 384.408L297.64 419.32L303.437 420.869ZM312.768 385.957V391.957H331.811V385.957V379.957H312.768V385.957ZM331.811 385.957L326.014 384.408L316.683 419.32L322.479 420.869L328.276 422.418L337.607 387.506L331.811 385.957ZM246.308 420.869V414.869H227.265V420.869V426.869H246.308V420.869ZM227.265 420.869L233.061 422.418L242.392 387.506L236.596 385.957L230.799 384.408L221.468 419.32L227.265 420.869ZM236.596 385.957V391.957H255.639V385.957V379.957H236.596V385.957ZM255.639 385.957L249.842 384.408L240.511 419.32L246.308 420.869L252.104 422.418L261.435 387.506L255.639 385.957ZM406.332 392.305L410.044 397.019L411.612 395.784L412.128 393.856L406.332 392.305ZM390.209 405V411H392.288L393.921 409.714L390.209 405ZM345.775 405L340.929 408.538L342.727 411H345.775V405ZM336.508 392.305L330.712 390.754L329.97 393.525L331.662 395.842L336.508 392.305ZM354.345 325.654L350.651 320.926L349.068 322.163L348.549 324.103L354.345 325.654ZM370.595 312.959V306.959H368.529L366.901 308.231L370.595 312.959ZM414.901 312.959L419.747 309.421L417.95 306.959H414.901V312.959ZM424.169 325.654L429.965 327.205L430.707 324.434L429.015 322.117L424.169 325.654ZM380.307 382.783V388.783H384.91L386.102 384.336L380.307 382.783ZM393.065 335.176L398.861 336.729L400.885 329.176H393.065V335.176ZM380.37 335.176V329.176H375.766L374.575 333.623L380.37 335.176ZM367.611 382.783L361.816 381.23L359.792 388.783H367.611V382.783ZM406.332 392.305L402.62 387.591L386.497 400.286L390.209 405L393.921 409.714L410.044 397.019L406.332 392.305ZM390.209 405V399H345.775V405V411H390.209V405ZM345.775 405L350.622 401.462L341.354 388.767L336.508 392.305L331.662 395.842L340.929 408.538L345.775 405ZM336.508 392.305L342.304 393.856L360.141 327.205L354.345 325.654L348.549 324.103L330.712 390.754L336.508 392.305ZM354.345 325.654L358.039 330.382L374.289 317.687L370.595 312.959L366.901 308.231L350.651 320.926L354.345 325.654ZM370.595 312.959V318.959H414.901V312.959V306.959H370.595V312.959ZM414.901 312.959L410.055 316.497L419.323 329.192L424.169 325.654L429.015 322.117L419.747 309.421L414.901 312.959ZM424.169 325.654L418.373 324.103L400.536 390.754L406.332 392.305L412.128 393.856L429.965 327.205L424.169 325.654ZM380.307 382.783L386.102 384.336L398.861 336.729L393.065 335.176L387.27 333.623L374.511 381.23L380.307 382.783ZM393.065 335.176V329.176H380.37V335.176V341.176H393.065V335.176ZM380.37 335.176L374.575 333.623L361.816 381.23L367.611 382.783L373.407 384.336L386.166 336.729L380.37 335.176ZM367.611 382.783V388.783H380.307V382.783V376.783H367.611V382.783ZM453.241 347.871L447.434 346.361L445.482 353.871H453.241V347.871ZM465.81 347.871V353.871H470.404L471.602 349.435L465.81 347.871ZM469.237 335.176L475.03 336.74L477.072 329.176H469.237V335.176ZM456.542 335.176V329.176H451.902L450.735 333.666L456.542 335.176ZM491.073 312.959L495.919 309.421L494.122 306.959H491.073V312.959ZM500.341 325.654L506.137 327.205L506.878 324.434L505.187 322.117L500.341 325.654ZM493.549 351.045L497.196 355.809L498.817 354.568L499.345 352.595L493.549 351.045ZM483.266 358.916L479.619 354.152L474.889 357.772L478.475 362.528L483.266 358.916ZM489.296 366.914L495.092 368.465L495.848 365.638L494.087 363.302L489.296 366.914ZM482.504 392.305L486.216 397.019L487.784 395.784L488.3 393.855L482.504 392.305ZM466.381 405V411H468.46L470.093 409.714L466.381 405ZM409.252 405L403.457 403.445L401.43 411H409.252V405ZM433.944 312.959V306.959H429.342L428.149 311.404L433.944 312.959ZM443.783 382.783L437.996 381.2L435.921 388.783H443.783V382.783ZM456.479 382.783V388.783H461.073L462.271 384.347L456.479 382.783ZM459.906 370.088L465.699 371.652L467.73 364.127L459.936 364.088L459.906 370.088ZM447.274 370.024L447.305 364.024L442.702 364.001L441.487 368.441L447.274 370.024ZM453.241 347.871V353.871H465.81V347.871V341.871H453.241V347.871ZM465.81 347.871L471.602 349.435L475.03 336.74L469.237 335.176L463.445 333.612L460.017 346.307L465.81 347.871ZM469.237 335.176V329.176H456.542V335.176V341.176H469.237V335.176ZM456.542 335.176L450.735 333.666L447.434 346.361L453.241 347.871L459.048 349.381L462.349 336.686L456.542 335.176ZM491.073 312.959L486.227 316.497L495.495 329.192L500.341 325.654L505.187 322.117L495.919 309.421L491.073 312.959ZM500.341 325.654L494.545 324.104L487.753 349.494L493.549 351.045L499.345 352.595L506.137 327.205L500.341 325.654ZM493.549 351.045L489.902 346.28L479.619 354.152L483.266 358.916L486.913 363.68L497.196 355.809L493.549 351.045ZM483.266 358.916L478.475 362.528L484.505 370.526L489.296 366.914L494.087 363.302L488.056 355.304L483.266 358.916ZM489.296 366.914L483.5 365.364L476.708 390.754L482.504 392.305L488.3 393.855L495.092 368.465L489.296 366.914ZM482.504 392.305L478.792 387.591L462.669 400.286L466.381 405L470.093 409.714L486.216 397.019L482.504 392.305ZM466.381 405V399H409.252V405V411H466.381V405ZM409.252 405L415.047 406.555L439.739 314.514L433.944 312.959L428.149 311.404L403.457 403.445L409.252 405ZM433.944 312.959V318.959H491.073V312.959V306.959H433.944V312.959ZM443.783 382.783V388.783H456.479V382.783V376.783H443.783V382.783ZM456.479 382.783L462.271 384.347L465.699 371.652L459.906 370.088L454.114 368.524L450.686 381.219L456.479 382.783ZM459.906 370.088L459.936 364.088L447.305 364.024L447.274 370.024L447.244 376.024L459.876 376.088L459.906 370.088ZM447.274 370.024L441.487 368.441L437.996 381.2L443.783 382.783L449.57 384.367L453.062 371.608L447.274 370.024ZM579.179 335.176L584.971 336.74L587.014 329.176H579.179V335.176ZM566.483 335.176V329.176H561.88L560.688 333.623L566.483 335.176ZM553.725 382.783L547.929 381.23L545.905 388.783H553.725V382.783ZM566.42 382.783V388.783H571.015L572.212 384.347L566.42 382.783ZM568.134 376.436V370.436H563.539L562.341 374.872L568.134 376.436ZM596.698 376.436L602.494 377.989L604.518 370.436H596.698V376.436ZM592.445 392.305L596.157 397.019L597.724 395.785L598.241 393.858L592.445 392.305ZM576.322 405V411H578.401L580.034 409.714L576.322 405ZM531.889 405L527.043 408.538L528.84 411H531.889V405ZM522.621 392.305L516.825 390.754L516.083 393.525L517.775 395.842L522.621 392.305ZM540.458 325.654L536.746 320.94L535.178 322.175L534.662 324.103L540.458 325.654ZM556.581 312.959V306.959H554.502L552.869 308.245L556.581 312.959ZM601.015 312.959L605.861 309.421L604.063 306.959H601.015V312.959ZM610.282 325.654L616.078 327.207L616.821 324.435L615.128 322.117L610.282 325.654ZM606.029 341.523V347.523H610.633L611.825 343.077L606.029 341.523ZM577.465 341.523L571.672 339.959L569.63 347.523H577.465V341.523ZM579.179 335.176V329.176H566.483V335.176V341.176H579.179V335.176ZM566.483 335.176L560.688 333.623L547.929 381.23L553.725 382.783L559.52 384.336L572.279 336.729L566.483 335.176ZM553.725 382.783V388.783H566.42V382.783V376.783H553.725V382.783ZM566.42 382.783L572.212 384.347L573.926 378L568.134 376.436L562.341 374.872L560.627 381.219L566.42 382.783ZM568.134 376.436V382.436H596.698V376.436V370.436H568.134V376.436ZM596.698 376.436L590.903 374.882L586.65 390.751L592.445 392.305L598.241 393.858L602.494 377.989L596.698 376.436ZM592.445 392.305L588.733 387.591L572.61 400.286L576.322 405L580.034 409.714L596.157 397.019L592.445 392.305ZM576.322 405V399H531.889V405V411H576.322V405ZM531.889 405L536.735 401.462L527.467 388.767L522.621 392.305L517.775 395.842L527.043 408.538L531.889 405ZM522.621 392.305L528.417 393.856L546.254 327.205L540.458 325.654L534.662 324.103L516.825 390.754L522.621 392.305ZM540.458 325.654L544.17 330.368L560.293 317.673L556.581 312.959L552.869 308.245L536.746 320.94L540.458 325.654ZM556.581 312.959V318.959H601.015V312.959V306.959H556.581V312.959ZM601.015 312.959L596.169 316.497L605.436 329.192L610.282 325.654L615.128 322.117L605.861 309.421L601.015 312.959ZM610.282 325.654L604.487 324.101L600.234 339.97L606.029 341.523L611.825 343.077L616.078 327.207L610.282 325.654ZM606.029 341.523V335.523H577.465V341.523V347.523H606.029V341.523ZM577.465 341.523L583.257 343.087L584.971 336.74L579.179 335.176L573.386 333.612L571.672 339.959L577.465 341.523ZM623.93 405V411H628.533L629.725 406.554L623.93 405ZM595.365 405L589.57 403.445L587.543 411H595.365V405ZM620.058 312.959V306.959H615.455L614.263 311.404L620.058 312.959ZM677.187 312.959L682.033 309.421L680.235 306.959H677.187V312.959ZM686.454 325.654L692.25 327.207L692.993 324.435L691.3 322.117L686.454 325.654ZM665.189 405V411H669.793L670.985 406.553L665.189 405ZM636.625 405L630.83 403.446L628.804 411H636.625V405ZM655.351 335.176L661.146 336.73L663.172 329.176H655.351V335.176ZM642.655 335.176V329.176H638.052L636.86 333.622L642.655 335.176ZM623.93 405V399H595.365V405V411H623.93V405ZM595.365 405L601.16 406.555L625.853 314.514L620.058 312.959L614.263 311.404L589.57 403.445L595.365 405ZM620.058 312.959V318.959H677.187V312.959V306.959H620.058V312.959ZM677.187 312.959L672.34 316.497L681.608 329.192L686.454 325.654L691.3 322.117L682.033 309.421L677.187 312.959ZM686.454 325.654L680.659 324.101L659.394 403.447L665.189 405L670.985 406.553L692.25 327.207L686.454 325.654ZM665.189 405V399H636.625V405V411H665.189V405ZM636.625 405L642.42 406.554L661.146 336.73L655.351 335.176L649.555 333.622L630.83 403.446L636.625 405ZM655.351 335.176V329.176H642.655V335.176V341.176H655.351V335.176ZM642.655 335.176L636.86 333.622L618.134 403.446L623.93 405L629.725 406.554L648.451 336.73L642.655 335.176ZM744.789 392.305L748.501 397.019L750.069 395.784L750.585 393.856L744.789 392.305ZM728.666 405V411H730.745L732.378 409.714L728.666 405ZM684.232 405L679.386 408.538L681.184 411H684.232V405ZM674.965 392.305L669.169 390.754L668.427 393.525L670.119 395.842L674.965 392.305ZM692.802 325.654L689.108 320.926L687.525 322.163L687.006 324.103L692.802 325.654ZM709.052 312.959V306.959H706.986L705.358 308.231L709.052 312.959ZM753.358 312.959L758.205 309.421L756.407 306.959H753.358V312.959ZM762.626 325.654L768.422 327.205L769.164 324.434L767.472 322.117L762.626 325.654ZM718.764 382.783V388.783H723.367L724.559 384.336L718.764 382.783ZM731.522 335.176L737.318 336.729L739.342 329.176H731.522V335.176ZM718.827 335.176V329.176H714.223L713.032 333.623L718.827 335.176ZM706.068 382.783L700.273 381.23L698.249 388.783H706.068V382.783ZM744.789 392.305L741.077 387.591L724.954 400.286L728.666 405L732.378 409.714L748.501 397.019L744.789 392.305ZM728.666 405V399H684.232V405V411H728.666V405ZM684.232 405L689.079 401.462L679.811 388.767L674.965 392.305L670.119 395.842L679.386 408.538L684.232 405ZM674.965 392.305L680.761 393.856L698.598 327.205L692.802 325.654L687.006 324.103L669.169 390.754L674.965 392.305ZM692.802 325.654L696.496 330.382L712.746 317.687L709.052 312.959L705.358 308.231L689.108 320.926L692.802 325.654ZM709.052 312.959V318.959H753.358V312.959V306.959H709.052V312.959ZM753.358 312.959L748.512 316.497L757.78 329.192L762.626 325.654L767.472 322.117L758.205 309.421L753.358 312.959ZM762.626 325.654L756.83 324.103L738.993 390.754L744.789 392.305L750.585 393.856L768.422 327.205L762.626 325.654ZM718.764 382.783L724.559 384.336L737.318 336.729L731.522 335.176L725.727 333.623L712.968 381.23L718.764 382.783ZM731.522 335.176V329.176H718.827V335.176V341.176H731.522V335.176ZM718.827 335.176L713.032 333.623L700.273 381.23L706.068 382.783L711.864 384.336L724.623 336.729L718.827 335.176ZM706.068 382.783V388.783H718.764V382.783V376.783H706.068V382.783ZM807.694 335.176L813.487 336.74L815.529 329.176H807.694V335.176ZM794.999 335.176V329.176H790.404L789.206 333.612L794.999 335.176ZM791.571 347.871L785.779 346.307L783.736 353.871H791.571V347.871ZM804.267 347.871V353.871H808.861L810.059 349.435L804.267 347.871ZM785.604 370.088V364.088H780.997L779.808 368.539L785.604 370.088ZM776.273 405V411H780.88L782.07 406.549L776.273 405ZM747.709 405L741.914 403.445L739.887 411H747.709V405ZM772.401 312.959V306.959H767.799L766.606 311.404L772.401 312.959ZM829.53 312.959L834.376 309.421L832.579 306.959H829.53V312.959ZM838.798 325.654L844.593 327.207L845.336 324.435L843.644 322.117L838.798 325.654ZM830.292 357.393L834.004 362.107L835.571 360.873L836.087 358.946L830.292 357.393ZM814.169 370.088V376.088H816.248L817.881 374.802L814.169 370.088ZM807.694 335.176V329.176H794.999V335.176V341.176H807.694V335.176ZM794.999 335.176L789.206 333.612L785.779 346.307L791.571 347.871L797.364 349.435L800.792 336.74L794.999 335.176ZM791.571 347.871V353.871H804.267V347.871V341.871H791.571V347.871ZM804.267 347.871L810.059 349.435L813.487 336.74L807.694 335.176L801.902 333.612L798.474 346.307L804.267 347.871ZM785.604 370.088L779.808 368.539L770.477 403.451L776.273 405L782.07 406.549L791.401 371.637L785.604 370.088ZM776.273 405V399H747.709V405V411H776.273V405ZM747.709 405L753.504 406.555L778.196 314.514L772.401 312.959L766.606 311.404L741.914 403.445L747.709 405ZM772.401 312.959V318.959H829.53V312.959V306.959H772.401V312.959ZM829.53 312.959L824.684 316.497L833.952 329.192L838.798 325.654L843.644 322.117L834.376 309.421L829.53 312.959ZM838.798 325.654L833.002 324.101L824.497 355.839L830.292 357.393L836.087 358.946L844.593 327.207L838.798 325.654ZM830.292 357.393L826.58 352.679L810.457 365.374L814.169 370.088L817.881 374.802L834.004 362.107L830.292 357.393ZM814.169 370.088V364.088H785.604V370.088V376.088H814.169V370.088ZM921.571 312.959L927.366 314.515L929.395 306.959H921.571V312.959ZM915.604 335.176V341.176H920.206L921.399 336.732L915.604 335.176ZM893.388 335.176V329.176H888.785L887.592 333.622L893.388 335.176ZM874.662 405V411H879.265L880.457 406.554L874.662 405ZM846.098 405L840.302 403.446L838.277 411H846.098V405ZM864.823 335.176L870.618 336.73L872.644 329.176H864.823V335.176ZM842.606 335.176L836.812 333.62L834.782 341.176H842.606V335.176ZM848.573 312.959V306.959H843.972L842.779 311.403L848.573 312.959ZM921.571 312.959L915.777 311.403L909.81 333.62L915.604 335.176L921.399 336.732L927.366 314.515L921.571 312.959ZM915.604 335.176V329.176H893.388V335.176V341.176H915.604V335.176ZM893.388 335.176L887.592 333.622L868.867 403.446L874.662 405L880.457 406.554L899.183 336.73L893.388 335.176ZM874.662 405V399H846.098V405V411H874.662V405ZM846.098 405L851.893 406.554L870.618 336.73L864.823 335.176L859.028 333.622L840.302 403.446L846.098 405ZM864.823 335.176V329.176H842.606V335.176V341.176H864.823V335.176ZM842.606 335.176L848.401 336.732L854.368 314.515L848.573 312.959L842.779 311.403L836.812 333.62L842.606 335.176ZM848.573 312.959V318.959H921.571V312.959V306.959H848.573V312.959ZM935.028 398.652V392.652H931.353L929.683 395.926L935.028 398.652ZM931.791 405V411H935.466L937.136 407.726L931.791 405ZM903.227 405L897.881 402.276L893.434 411H903.227V405ZM950.136 312.959V306.959H946.459L944.79 310.234L950.136 312.959ZM985.048 312.959L991.046 313.12L991.211 306.959H985.048V312.959ZM982.572 405V411H988.413L988.57 405.161L982.572 405ZM954.008 405L948.01 404.82L947.825 411H954.008V405ZM954.198 398.652L960.196 398.832L960.381 392.652H954.198V398.652ZM954.77 376.436V382.436H960.619L960.768 376.588L954.77 376.436ZM955.214 358.979L961.212 359.132L949.859 356.273L955.214 358.979ZM946.391 376.436L941.036 373.729L936.635 382.436H946.391V376.436ZM935.028 398.652L929.683 395.926L926.446 402.274L931.791 405L937.136 407.726L940.373 401.378L935.028 398.652ZM931.791 405V399H903.227V405V411H931.791V405ZM903.227 405L908.572 407.724L955.482 315.683L950.136 312.959L944.79 310.234L897.881 402.276L903.227 405ZM950.136 312.959V318.959H985.048V312.959V306.959H950.136V312.959ZM985.048 312.959L979.05 312.798L976.574 404.839L982.572 405L988.57 405.161L991.046 313.12L985.048 312.959ZM982.572 405V399H954.008V405V411H982.572V405ZM954.008 405L960.005 405.18L960.196 398.832L954.198 398.652L948.201 398.472L948.01 404.82L954.008 405ZM954.198 398.652V392.652H935.028V398.652V404.652H954.198V398.652ZM954.77 376.436L960.768 376.588L961.212 359.132L955.214 358.979L949.216 358.827L948.771 376.283L954.77 376.436ZM955.214 358.979L949.859 356.273L941.036 373.729L946.391 376.436L951.745 379.142L960.569 361.686L955.214 358.979ZM946.391 376.436V382.436H954.77V376.436V370.436H946.391V376.436Z" fill="black" mask="url(#path-5-outside-3_47_149)"/>
</g>
<g filter="url(#filter3_d_47_149)">
<path d="M1140 13L792.5 16L765 138.499H1116.52L1140 13Z" fill="white"/>
<path d="M1114.45 135.999H768.124L794.505 18.4824L1136.98 15.5254L1114.45 135.999Z" stroke="black" stroke-width="5"/>
</g>
<path d="M828.125 99.3086L823.789 115.5H815L822.598 87.1797H837.246L836.855 101.34L844.082 87.1797H858.73L851.133 115.5H842.344L846.68 99.3086L838.438 115.5H827.695L828.125 99.3086ZM875.625 111.594L870.664 115.5H856.992L854.141 111.594L859.629 91.0859L864.629 87.1797H878.262L881.113 91.0859L875.625 111.594ZM867.617 108.664L871.543 94.0156H867.637L863.711 108.664H867.617ZM894.98 94.0156H891.074L887.148 108.664H891.055L891.582 106.711H900.371L899.062 111.594L894.102 115.5H880.43L877.578 111.594L883.066 91.0859L888.027 87.1797H901.699L904.551 91.0859L903.242 95.9688H894.453L894.98 94.0156ZM913.535 97.6484L921.23 87.1797H930.996L920.234 101.828L923.398 115.5H913.633L911.367 105.734L908.75 115.5H899.961L907.559 87.1797H916.348L913.535 97.6484ZM938.887 97.9219H942.754L943.809 94.0156H939.902L938.887 97.9219ZM950.527 87.1797L953.379 91.0859L951.289 98.8984L948.125 101.32L949.98 103.781L947.891 111.594L942.93 115.5H925.352L932.949 87.1797H950.527ZM935.977 108.664H939.883L940.938 104.758L937.051 104.738L935.977 108.664ZM958.574 113.547L957.578 115.5H948.789L963.223 87.1797H973.965L973.203 115.5H964.414L964.473 113.547H958.574ZM964.648 106.711L964.785 101.34L962.07 106.711H964.648ZM1002.95 97.9219L1004 94.0156H991.309L993.145 87.1797H1010.72L1013.57 91.0859L1010.96 100.852L1006 104.758H997.207L996.172 108.664H1008.87L1007.03 115.5H985.547L989.219 101.828L994.16 97.9219H1002.95ZM1031.09 111.594L1025.59 115.5H1013.87L1010.1 111.594L1015.53 91.0859L1020.88 87.1797H1033.24L1036.52 91.0859L1031.09 111.594ZM1023.4 107.688L1026.7 94.9922H1023.2L1019.98 107.688H1023.4ZM1050.33 97.9219L1051.39 94.0156H1038.69L1040.53 87.1797H1058.11L1060.96 91.0859L1058.34 100.852L1053.38 104.758H1044.59L1043.55 108.664H1056.25L1054.41 115.5H1032.93L1036.6 101.828L1041.54 97.9219H1050.33ZM1063.14 104.758L1060.29 100.852L1063.96 87.1797H1085.45L1083.61 94.0156H1070.92L1069.86 97.9219H1078.65L1081.52 101.828L1078.91 111.594L1073.95 115.5H1056.37L1058.2 108.664H1070.9L1071.93 104.758H1063.14Z" fill="black"/>
<path d="M827.483 57.4688L824.632 53.5625L828.304 39.8906H849.788L847.952 46.7266H835.257L834.202 50.6328H842.991L845.862 54.5391L843.245 64.3047L838.284 68.2109H820.706L822.542 61.375H835.237L836.272 57.4688H827.483ZM847.015 57.4688L848.851 50.6328H869.358L867.542 57.4688H847.015ZM884.339 45.75H872.62L874.202 39.8906H895.687L894.104 45.75L879.3 68.2109H869.534L884.339 45.75ZM918.89 46.7266H914.983L911.058 61.375H914.964L915.491 59.4219H924.28L922.972 64.3047L918.011 68.2109H904.339L901.487 64.3047L906.976 43.7969L911.937 39.8906H925.608L928.46 43.7969L927.151 48.6797H918.362L918.89 46.7266ZM938.421 46.7266L937.366 50.6328H950.042L948.226 57.4688H935.569L934.495 61.375H947.19L945.354 68.2109H927.776L924.925 64.3047L930.413 43.7969L935.374 39.8906H952.952L951.116 46.7266H938.421ZM958.987 57.4688L956.097 68.2109H947.308L954.905 39.8906H963.694L960.804 50.6328H965.687L968.577 39.8906H977.366L969.769 68.2109H960.979L963.851 57.4688H958.987ZM1001.78 39.8906L999.944 46.7266H993.108L987.347 68.2109H978.558L984.319 46.7266H977.483L979.319 39.8906H1001.78ZM1011.66 46.7266L1010.61 50.6328H1014.51L1015.57 46.7266H1011.66ZM1011.9 60.3984L1005.9 68.2109H996.136L1004.38 57.4688H1003.89L1001.04 53.5625L1003.66 43.7969L1008.62 39.8906H1026.19L1018.6 68.2109H1009.81L1011.9 60.3984ZM1045.73 39.8906L1048.58 43.7969L1047.8 46.7266H1035.12L1034.08 50.6328H1044.22L1046.08 53.0938L1043.09 64.3047L1038.13 68.2109H1020.55L1028.15 39.8906H1045.73ZM1031.17 61.375H1035.08L1036.14 57.4688L1032.25 57.4492L1031.17 61.375ZM1062.44 46.7266H1058.54L1057.48 50.6328H1061.39L1062.44 46.7266ZM1055.65 57.4688L1052.78 68.2109H1043.99L1051.58 39.8906H1069.16L1072.01 43.7969L1069.4 53.5625L1064.44 57.4688H1055.65ZM1082.95 46.7266L1081.9 50.6328H1085.8L1086.86 46.7266H1082.95ZM1083.19 60.3984L1077.19 68.2109H1067.42L1075.67 57.4688H1075.18L1072.33 53.5625L1074.94 43.7969L1079.91 39.8906H1097.48L1089.89 68.2109H1081.1L1083.19 60.3984Z" fill="black"/>
<defs>
<filter id="filter0_d_47_149" x="1.90857" y="34.9609" width="751.852" height="115.039" filterUnits="userSpaceOnUse" color-interpolation-filters="sRGB">
<feFlood flood-opacity="0" result="BackgroundImageFix"/>
<feColorMatrix in="SourceAlpha" type="matrix" values="0 0 0 0 0 0 0 0 0 0 0 0 0 0 0 0 0 0 127 0" result="hardAlpha"/>
<feOffset dx="18" dy="11"/>
<feComposite in2="hardAlpha" operator="out"/>
<feColorMatrix type="matrix" values="0 0 0 0 0 0 0 0 0 0 0 0 0 0 0 0 0 0 1 0"/>
<feBlend mode="normal" in2="BackgroundImageFix" result="effect1_dropShadow_47_149"/>
<feBlend mode="normal" in="SourceGraphic" in2="effect1_dropShadow_47_149" result="shape"/>
</filter>
<filter id="filter1_d_47_149" x="273.901" y="172.961" width="916.943" height="115.039" filterUnits="userSpaceOnUse" color-interpolation-filters="sRGB">
<feFlood flood-opacity="0" result="BackgroundImageFix"/>
<feColorMatrix in="SourceAlpha" type="matrix" values="0 0 0 0 0 0 0 0 0 0 0 0 0 0 0 0 0 0 127 0" result="hardAlpha"/>
<feOffset dx="18" dy="11"/>
<feComposite in2="hardAlpha" operator="out"/>
<feColorMatrix type="matrix" values="0 0 0 0 0 0 0 0 0 0 0 0 0 0 0 0 0 0 1 0"/>
<feBlend mode="normal" in2="BackgroundImageFix" result="effect1_dropShadow_47_149"/>
<feBlend mode="normal" in="SourceGraphic" in2="effect1_dropShadow_47_149" result="shape"/>
</filter>
<filter id="filter2_d_47_149" x="68.1782" y="306.961" width="941.033" height="130.906" filterUnits="userSpaceOnUse" color-interpolation-filters="sRGB">
<feFlood flood-opacity="0" result="BackgroundImageFix"/>
<feColorMatrix in="SourceAlpha" type="matrix" values="0 0 0 0 0 0 0 0 0 0 0 0 0 0 0 0 0 0 127 0" result="hardAlpha"/>
<feOffset dx="18" dy="11"/>
<feComposite in2="hardAlpha" operator="out"/>
<feColorMatrix type="matrix" values="0 0 0 0 0 0 0 0 0 0 0 0 0 0 0 0 0 0 1 0"/>
<feBlend mode="normal" in2="BackgroundImageFix" result="effect1_dropShadow_47_149"/>
<feBlend mode="normal" in="SourceGraphic" in2="effect1_dropShadow_47_149" result="shape"/>
</filter>
<filter id="filter3_d_47_149" x="765" y="13" width="393" height="136.5" filterUnits="userSpaceOnUse" color-interpolation-filters="sRGB">
<feFlood flood-opacity="0" result="BackgroundImageFix"/>
<feColorMatrix in="SourceAlpha" type="matrix" values="0 0 0 0 0 0 0 0 0 0 0 0 0 0 0 0 0 0 127 0" result="hardAlpha"/>
<feOffset dx="18" dy="11"/>
<feComposite in2="hardAlpha" operator="out"/>
<feColorMatrix type="matrix" values="0 0 0 0 0 0 0 0 0 0 0 0 0 0 0 0 0 0 1 0"/>
<feBlend mode="normal" in2="BackgroundImageFix" result="effect1_dropShadow_47_149"/>
<feBlend mode="normal" in="SourceGraphic" in2="effect1_dropShadow_47_149" result="shape"/>
</filter>
</defs>
</svg>
