<?xml version="1.0" encoding="UTF-8"?>
<svg id="_Слой_2" data-name="Слой 2" xmlns="http://www.w3.org/2000/svg" viewBox="0 0 340.157480315 88.7738607904">
  <defs>
    <style>
      .cls-1 {
        fill: #fff;
      }

      .cls-2 {
        fill: #d21129;
      }

      .cls-3 {
        fill: #fab806;
      }
    </style>
  </defs>
  <g id="Layer_1" data-name="Layer 1">
    <g>
      <g>
        <g>
          <path class="cls-3" d="M247.9021088467,41.1418174058c-27.0584994558,9.453896843-52.3758332952,26.5623822468-73.1377719187,47.6320433846,23.0305327238-14.3036467911,47.8901996956-27.9337777575,71.7670711494-34.8693329554.8471053412-4.2657599339,1.295381222-8.544049169,1.3707007693-12.7627104292"/>
          <path class="cls-3" d="M244.9240161099,60.4075945509c-22.6410942502,7.9992521508-43.4816105184,18.7444815506-56.1925986504,27.4706487853,15.5401666493-5.5987051031,30.9295025511-10.4280679854,51.5492348028-15.7504337188,1.9226608106-3.8308518353,3.4643158704-7.7574821535,4.6433638475-11.7202150665"/>
          <path class="cls-3" d="M236.2373533069,79.1529145824c-8.8173700072,2.3259941116-20.7155586477,5.0287776125-30.4034156368,8.4043342836h24.0087285748c2.3839690812-2.7043646364,4.5082486291-5.5154798781,6.394687062-8.4043342836"/>
          <path class="cls-2" d="M246.1088136708,23.9991459352c-30.6483479051,13.4244635638-52.961524228,32.1901227479-67.2760712716,52.6498249182l-.0816440894.2739676663c15.4968531182-15.7833979991,44.3515225419-33.3840956862,68.8085269974-42.9023399542-.2976367862-3.0340793087-.7765771137-7.124764417-1.4508116364-10.0214526303"/>
          <path class="cls-2" d="M241.189086497,10.1793026612c-26.0160999195,13.7408344104-44.0257127953,32.752192474-56.9588265133,51.4927211857,13.9927620057-14.4104213529,37.6373502754-33.0936458798,60.1427543488-43.7854760203-.9019180397-2.6745386707-1.9640578137-5.250160544-3.1839278355-7.7072451654"/>
          <path class="cls-1" d="M192.3774201769,45.2102707902c10.6549369781-13.6505180321,27.546064159-29.2212053885,45.4096376072-40.9712224642-.9703380865-1.4773795047-2.0056464696-2.8927593311-3.1007505238-4.239048326-19.0412798558,12.2068933755-32.7820184398,28.6332385789-42.3088870834,45.2102707902"/>
        </g>
        <path class="cls-1" d="M254.1675770098.5221978653c.5781657832.3303804476,1.0328248571.784653563,1.3632053047,1.3628193462.3303804476.5785517417.4955706713,1.219628755.4955706713,1.9236169984s-.1690498084,1.3485388829-.5063775084,1.934037877-.7973901924,1.0471053204-1.3794155603,1.3848189788c-.581253451.3377136584-1.2242602566.5063775084-1.9282485.5063775084s-1.3454512152-.16866385-1.9236169984-.5063775084-1.034368691-.7973901924-1.3686087232-1.3794155603-.5009740899-1.2211725889-.5009740899-1.9178276214.1667340576-1.336188212.5009740899-1.9182135799c.3342400322-.5816394094.7919867738-1.0413159434,1.3740121417-1.3790296018s1.2281198413-.5067634669,1.939827254-.5067634669c.7109354958,0,1.3554861353.1655761823,1.9336519186.4959566298ZM253.8927745815,6.7071822955c.5032898407-.2944863102.9000551445-.6966550325,1.1910678285-1.2068921256.291012684-.5098511346.4361330675-1.0737364546.4361330675-1.6916559599s-.1420327158-1.1779452406-.4253262304-1.6808491228c-.2840654316-.5029038822-.6754273169-.8981253522-1.1748575729-1.1852784515-.499430256-.2875390578-1.0613857836-.4311156074-1.6858665829-.4311156074-.6183054638,0-1.1802609914.1470501758-1.6866384998.441536486-.5063775084.2948722686-.9031428123.6951111987-1.1910678285,1.2014887071-.2871530993.5063775084-.4307296489,1.0652453683-.4307296489,1.6758316628s.1435765496,1.1690681959.4307296489,1.6754457043c.2879250162.5063775084.6823745693.9070023969,1.1856644099,1.2014887071.5025179237.2944863102,1.0598419498.441536486,1.6704282442.441536486.6175335468,0,1.1779452406-.1470501758,1.6804631644-.441536486ZM253.9251950927,3.9703508075c-.1582429714.2296452877-.3805550482.3948355115-.6677081475.4955706713l.9803345056,1.5191325252h-.743356007l-.894651726-1.3790296018h-1.1740856559v1.3790296018h-.7333210869V1.6750558056h1.7244624296c.5387980196,0,.96412425.133155671,1.2767506081.3986950962.3126263581.2659253836.4685535787.6213931315.4685535787,1.0667892022,0,.3230472367-.0787355272.5997794574-.2369784986.8298107036ZM253.1656288301,3.7762136987c.1906634826-.1509097605.2856092654-.3628009588.2856092654-.6356735948s-.0949457828-.4832200004-.2856092654-.6302701762c-.1906634826-.1474361343-.4577467416-.2211542015-.8027936109-.2211542015h-.9479139944v1.713269634h.9479139944c.3450468693,0,.6121301283-.075261901.8027936109-.2261716615Z"/>
        <path class="cls-1" d="M23.4314416433,40.7129282543c2.9651608824-1.5951186785,6.357338755-2.3936322293,10.1770033834-2.3936322293,6.0416562276,0,11.2025018318,2.2522327639,15.4787786874,6.7547605082l8.8945431158-8.209448613c-2.9073797055-3.3634047255-6.4987382204-5.9292941524-10.7773639043-7.6966406681-4.2753373242-1.7673171554-9.0368821126-2.6505059674-14.2799367083-2.6505059674-6.2727809351,0-11.9156061124,1.3247685378-16.9327034229,3.9762727573-5.0166275448,2.6505353277-8.9368220257,6.3275967162-11.7587043801,11.0302446342-2.8218823543,4.704556341-4.2330584143,10.0229496054-4.2330584143,15.9503353347,0,5.9312025754,1.41117606,11.2447807417,4.2330584143,15.9493370827,2.8218823543,4.7045857013,6.714360661,8.3797386669,11.6727372632,11.0312135259,4.9597858993,2.6515042194,10.5476484937,3.977241649,16.7617087206,3.977241649,4.3312394385,0,8.6375812966-.657084725,12.9129186209-1.967437329,4.2753373242-1.3094130727,8.0390998384-3.1922045007,11.2898782456-5.6426196548v-25.244971996h-20.2948162929v11.2447807417h7.6388594912v7.2435223231c-3.19628559,1.7086551679-6.7876441048,2.5648911748-10.7773639043,2.5648911748-3.7604741545,0-7.1117824142-.812958845-10.046878294-2.4369387516-2.9393237708-1.62591769-5.2327197511-3.8916268564-6.885825129-6.7990359222-1.6526356122-2.9083485972-2.4798929496-6.2130913352-2.4798929496-9.9199828435,0-3.7617366498.8272573374-7.0972783993,2.4798929496-10.0056563568,1.6531053779-2.9074090658,3.9620036252-5.1596124694,6.9271645076-6.7557293999"/>
        <polygon class="cls-1" points="107.0148632593 63.8885824926 77.2566176293 27.5431358953 65.796214447 27.5431358953 65.796214447 87.4047287575 79.4781394628 87.4047287575 79.4781394628 51.0602216915 109.3256405693 87.4047287575 120.6993719862 87.4047287575 120.6993719862 27.5431358953 107.0148632593 27.5431358953 107.0148632593 63.8885824926"/>
        <polygon class="cls-1" points="176.4485906979 27.5430184539 157.9745861255 70.302674812 139.7605968492 27.5430184539 124.7933929718 27.5430184539 150.6206395106 87.4055802078 164.3032691749 87.4055802078 190.2160130648 27.5430184539 176.4485906979 27.5430184539"/>
      </g>
      <g>
        <path class="cls-1" d="M268.7471139088,50.0579861574c-1.2813292136-.6917997276-2.7170286031-1.0367773431-4.3070697916-1.0367773431-1.591914062,0-3.0276134515.3449776155-4.3070697916,1.0367773431-1.2813575905.6918281044-2.285586663,1.6514203595-3.0145884679,2.8788335191-.7271573083,1.2274131595-1.0916582107,2.6007969412-1.0916582107,4.1183352255,0,1.5175099073.3645009024,2.8890491925,1.0916582107,4.116462352.7290018049,1.2273847827,1.7332308774,2.1870054146,3.0145884679,2.8788051422,1.2794563401.6918281044,2.7151557296,1.0368057199,4.3070697916,1.0368057199,1.5900411885,0,3.025740578-.3449776155,4.3070697916-1.0368057199,1.279484717-.6917997276,2.2837421664-1.6467665528,3.0127439713-2.8685894688.7271289314-1.218105546,1.0916298339-2.5942986379,1.0916298339-4.1266780254,0-1.5324077644-.3645009024-2.9104453529-1.0916298339-4.1285508989-.7290018049-1.2199784194-1.7332592543-2.1767897412-3.0127439713-2.8686178457M269.2157863031,59.8772346799c-.4761071344.8406080368-1.1325776581,1.4952056871-1.9638780814,1.9638780814-.8349894164.4686440174-1.7722774513.702015401-2.8118641045.702015401-1.0414311498,0-1.9787191847-.2333713835-2.813736978-.702015401-.8312720464-.4686723943-1.487770947-1.1232700445-1.961976831-1.9638780814-.4761071344-.84057966-.7141323247-1.7806486281-.7141323247-2.8220797779,0-1.0414595267.2380251903-1.9834013683.7141323247-2.8239810283.474205884-.84057966,1.1307047846-1.4952056871,1.961976831-1.9638497045.8350177933-.4686440174,1.7723058282-.7020437778,2.813736978-.7020437778,1.0395866532,0,1.9768746881.2333997604,2.8118641045.7020437778.8313004233.4686440174,1.487770947,1.1232700445,1.9638780814,1.9638497045.4742058841.8405796599.7122594512,1.7825215016.7122594512,2.8239810283,0,1.0414311498-.2380535672,1.981500118-.7122594512,2.8220797779"/>
        <rect class="cls-1" x="275.9323929283" y="49.2427754197" width="2.9011377393" height="15.6215240011"/>
        <polygon class="cls-1" points="294.1197535662 62.4102392773 285.9537698998 62.4102392773 285.9537698998 49.2435415953 283.0526321605 49.2435415953 283.0526321605 64.8650655964 294.1197535662 64.8650655964 294.1197535662 62.4102392773"/>
        <path class="cls-1" d="M261.6839689402,74.5724524951c.8536046435-.4611809005,1.8327201856-.6917997276,2.9336860099-.6917997276,1.6811593199,0,3.1168587094.5951197295,4.3070697916,1.7853308117l1.8299392523-1.7853308117c-.7290018049-.8331449199-1.6290877624-1.4654383498-2.7002862495-1.8969086668-1.0693256136-.4314419401-2.2614095693-.6471629102-3.5706332466-.6471629102-1.6067835421,0-3.0545714785.3468221121-4.3396180621,1.0367773431-1.2869194571.693672601-2.2958023364,1.6486394262-3.0248325181,2.8685894688-.7290018049,1.2199784194-1.0935027073,2.5961715113-1.0935027073,4.1285508989,0,1.5324077644.3645009024,2.9086008563,1.0935027073,4.1285508989.7290301817,1.2199784194,1.7332592543,2.1749452446,3.0127439713,2.8686178457,1.2794563401.6917997276,2.7151557296,1.0367773431,4.3089426651,1.0367773431,1.1288319112,0,2.231642232-.1710841526,3.3009678456-.5132808348,1.071198487-.3421966822,2.0084865219-.8331449199,2.8118641045-1.4729014668v-6.2262826787h-5.0955778941v2.3078908833h2.3506548272v2.5570965606c-.9224185547.5355850551-1.9935886648.8034059595-3.2135670843.8034059595-1.0860679672,0-2.0577487692-.2380535672-2.9113534127-.7141323247-.855477517-.4760787575-1.5249730243-1.1307047846-2.0103593954-1.9638497045-.4835134976-.8331449199-.7243479981-1.7704329547-.7243479981-2.8118924814,0-1.0711701102.2408345005-2.0233560021.7243479981-2.8565009219.4853863711-.8331449199,1.1548818784-1.4803362069,2.0103593954-1.9415454842"/>
        <path class="cls-1" d="M286.5870848972,80.1517709017c.5746600059-.8480427769.8619758204-1.8597065895.8619758204-3.0350481915,0-1.1455742648-.2696370241-2.1349338571-.8033775826-2.968078777-.5374579286-.8331732967-1.3064427441-1.4729014668-2.3107001934-1.919241264-1.0042290725-.4463114203-2.1842244813-.6694955073-3.5362121026-.6694955073h-6.4271625454v15.621552378h2.9011377393v-4.5525580989h3.5260248061c.2677925275,0,.466771144-.0074347401.6006815962-.0223325971l3.1931073606,4.574890696h3.1224489529l-3.5929658438-5.1328083482c1.0711984871-.4165724599,1.8941277335-1.0488658899,2.4650419925-1.89688029M280.66301589,80.2410161596h-3.3902698573v-6.2262826787h3.3902698573c1.2664597334,0,2.2242074919.2677925275,2.8806780157.8034059595.6527531537.5355850551.9819248523,1.3017889373.9819248523,2.2985832697s-.3291716986,1.7657791479-.9819248523,2.3106718166c-.6564705237.543048172-1.6142182822.8136216329-2.8806780157.8136216329"/>
        <path class="cls-1" d="M302.2885749196,72.3743801009c-1.2813292136-.6917997276-2.7170286031-1.0367773431-4.3070697916-1.0367773431-1.591914062,0-3.0276134514.3449776155-4.3070697916,1.0367773431-1.2813575905.6918281044-2.285586663,1.6514203595-3.0145884679,2.8788335191-.7271573083,1.2274131595-1.0916582107,2.6007969412-1.0916582107,4.1183352255,0,1.5175099073.3645009024,2.8890491925,1.0916582107,4.116462352.7290018049,1.2273847827,1.7332308774,2.1870054146,3.0145884679,2.8788051422,1.2794563401.6918281044,2.7151557296,1.0368057199,4.3070697916,1.0368057199,1.5900411885,0,3.025740578-.3449776155,4.3070697916-1.0368057199,1.279484717-.6917997276,2.2837421664-1.6467665528,3.0108710978-2.8685894688.728093745-1.218105546,1.0925946475-2.5942986379,1.0925946475-4.1266780254,0-1.5324077644-.3645009024-2.9104453529-1.0925946475-4.1285508989-.7271289314-1.2199784194-1.7313863808-2.1767897412-3.0108710978-2.8686178457M302.7572473138,82.1936286234c-.4761071344.8406080368-1.1325776581,1.4952056871-1.9638780814,1.9638780814-.8349894164.4686440174-1.7722774513.702015401-2.8118641045.702015401-1.0414311498,0-1.9787191847-.2333713835-2.813736978-.702015401-.8312720464-.4686723943-1.487770947-1.1232700445-1.961976831-1.9638780814-.4761071344-.84057966-.7141323247-1.7806486281-.7141323247-2.8220797779,0-1.0414595267.2380251903-1.9834013683.7141323247-2.8239810283.4742058841-.84057966,1.1307047846-1.4952056871,1.961976831-1.9638497045.8350177933-.4686440174,1.7723058282-.7020437778,2.813736978-.7020437778,1.0395866532,0,1.9768746881.2333997604,2.8118641045.7020437778.8313004233.4686440174,1.487770947,1.1232700445,1.9638780814,1.9638497045.4742058841.84057966.7122594512,1.7825215016.7122594512,2.8239810283,0,1.0414311498-.2380535672,1.981500118-.7122594512,2.8220797779"/>
        <path class="cls-1" d="M320.1615198315,80.2634338874c0,3.0648155288-1.3166867943,4.5971949163-3.9490955694,4.5971949163-2.6491511287,0-3.9732726631-1.5323793875-3.9732726631-4.5971949163v-8.703413218h-2.8992648659v8.8150194499c0,2.2613811924.6006815962,3.9992942534,1.8057621585,5.2118095559,1.2050805624,1.2125436793,2.8862682592,1.8178790823,5.0435347134,1.8178790823,2.1572380774,0,3.8337719674-.6053354029,5.0332906632-1.8178790823,1.1976458223-1.2125153025,1.7955464852-2.9504283635,1.7955464852-5.2118095559v-8.8150194499h-2.8565009219v8.703413218Z"/>
        <path class="cls-1" d="M339.3541311092,74.1483601644c-.5356418088-.8331732967-1.3064427441-1.4729014668-2.3107001934-1.919241264-1.0042290725-.4463114203-2.1842244813-.6694955073-3.5362404795-.6694955073h-6.4271341686v15.621552378h2.9011377393v-4.5079212815h3.5259964292c1.3520159982,0,2.532011407-.223184087,3.5362404795-.6694955073,1.0042574494-.4463397972,1.7750583846-1.0888772774,2.3107001934-1.9294569374.5337121816-.84057966.8033492058-1.827158319.8033492058-2.9578631036,0-1.1455742648-.2696370241-2.1330893606-.8033492058-2.968078777M336.25214188,79.4150222111c-.6546260271.535613432-1.6142466591.8034059595-2.8807063925.8034059595h-3.3902414804v-6.2039784584h3.3902414804c1.2664597334,0,2.2260803654.2677925275,2.8807063925.8034059595.6527531537.5355850551.9819248522,1.3017889373.9819248522,2.2985832697s-.3291716986,1.7629982146-.9819248522,2.2985832697"/>
      </g>
    </g>
  </g>
</svg>