<?xml version="1.0" encoding="UTF-8"?>
<svg id="_Слой_2" data-name="Слой 2" xmlns="http://www.w3.org/2000/svg" viewBox="0 0 798.4291643972 157.0250686431">
  <defs>
    <style>
      .cls-1 {
        fill: #fff;
      }

      .cls-2 {
        fill: #ed1c2e;
      }

      .cls-3 {
        fill: #20419a;
      }

      .cls-4 {
        fill: #fdb827;
      }
    </style>
  </defs>
  <g id="Layer_1" data-name="Layer 1">
    <g>
      <path class="cls-1" d="M373.9817173464,7.1234406261s-35.1712859992,10.6250789966-58.3161401453,32.6241518318c-34.2606706636,32.5646031103-57.1558560653,76.9156048155-57.1558560653,76.9156048155,0,0,16.8413442185,18.497507193,30.845247892,25.0263470752,14.0039036735,6.5288398823,49.798413723,3.4758337151,49.798413723,3.4758337151l49.2475193507-119.6029685238-14.4191847551-18.4389689139Z"/>
      <path class="cls-1" d="M235.2117867704,71.8790849509s-.5480412152.5974355029-2.3558043899.7318416903c1.2271284598-.0097444486,2.2640721693.7120167777,2.2640721693.7120167777,13.1550052579,8.4134913148,17.56520817,22.1692925625,16.7449944322,32.9093549809-2.241223118,29.2141928743-25.3291813881,46.1265234328-53.6872061323,46.1265234328-28.3674331771,0-48.8304386739-16.9123305585-46.5925757105-46.1265234328.8433988045-10.914118431,7.3604186507-24.6074208017,21.7919466409-32.9715178426,0,0,1.141780533-.666318674,2.3692450083-.649853916-1.7886102934-.1475107907-2.2479434272-.7348658295-2.2479434272-.7348658295-9.3781914878-7.2061877366-11.9114120405-18.0709118937-11.1469571088-28.0267142087,1.7391962605-22.6481146051,22.7925809204-39.3766447023,47.1701665259-39.3766447023,24.3906902084,0,42.8520516101,16.8730167487,41.1225800376,39.3766447023-.767795326,9.9625226243-4.9417793698,20.8369912301-15.4325180455,28.0297383479M205.1871253448,59.9085338871c9.2894834064,0,15.6687369139-6.0704554532,16.331359401-13.9328813997.6696788117-7.8160558118-4.9054897001-13.9261610903-13.9883235986-13.9261610903-9.0764496047,0-15.6852016714,6.1101052785-16.3448000194,13.9261610903-.6659826417,7.8624259465,4.7055605014,13.9328813997,14.001764217,13.9328813997M200.2221609082,123.5545678298c10.2972147479,0,19.0157869107-7.3402579085,19.9478937966-18.3101549073.8827126133-10.4379845122-6.2381270144-18.0477268264-16.843446962-18.0477268264-10.5955754993,0-19.0060424623,7.6097423142-19.8917792148,18.0477268264-.932106886,10.9698969988,6.5035996849,18.3101549073,16.7873323801,18.3101549073"/>
      <path class="cls-1" d="M131.243899239,122.9245388265l-.0063842937.0131046033-3.3833396664-3.6420716626c8.4561841681-11.7212275863,13.9362412023-25.8281649986,15.0585328386-40.9979193377,3.0318674953-40.7680847572-26.4645776273-73.8249505288-65.8707906954-73.8249505288C37.6454488023,4.4727019007,3.2398178095,37.5295676722.214334608,78.2976524294c-3.0318674953,40.7778292058,26.4578573181,73.8249505288,65.861046247,73.8249505288,14.8122335064,0,28.9090900986-4.6726311044,40.9092102205-12.6630789444l1.6669726969,1.7916344778c2.0772475735,2.1296660391,7.0647250459,7.2159321852,9.3422378336,9.4406906018,12.3247110563,12.0296897863,34.6515943095-4.8006529979,34.6515943095-4.8006529979M30.3935631452,78.2976524294c1.7489604691-23.5210827922,21.5947055659-42.5859284416,44.3348878349-42.5859284416,22.7301018052,0,39.7476233263,19.0648456494,37.9986443063,42.5859284416-.4956043093,6.6809955594-2.4609772288,13.0007744902-5.5227501001,18.6317217106l-13.6079540979-14.6186889708-21.2764989254,19.7146995654,13.8344285179,14.8485235512c-5.4931807396,2.5725344265-11.5112176277,4.0194170337-17.7590890904,4.0194170337-22.7334619598,0-39.7408680834-19.0682058041-38.0016684454-42.5956728902Z"/>
      <path class="cls-4" d="M357.1585175031,149.7402532869c1.1847905119-1.2402330941,4.2035534042-4.4562371427,10.2313347407-11.3536266638h-80.417235973c17.3750234196,10.5760868698,34.773231906,13.2961320869,48.0068889027,13.3125968449h.0100804641c9.6634444918.0097444486,18.5759185521-1.0991065973,22.1689318655-1.9589701811"/>
      <path class="cls-4" d="M438.7309765562,48.4432663124c-5.8899791763-25.8966231779-21.2143004044-41.6410386315-21.8638851522-42.2972016635l-1.447222525-1.4633767925-1.9851429802.5315919793c-9.7655878058,2.6184901911-19.5012818897,6.779463124-29.0995814302,12.4099747866-4.5906431417-7.1268631456-8.5086359062-11.1532726953-8.8302224075-11.4781899734l-1.4471392556-1.4633767925-1.9852262496.5315919793c-16.1116335971,4.3181855985-32.1247594701,12.8038391447-47.6032956646,25.2274701163-12.2824060347,9.8605982144-24.2627106126,22.2149490283-35.6129154869,36.7254782117-19.2684605906,24.6365903097-29.9033811444,46.661351982-30.3466242687,47.5868083193l-.9777495333,2.0475950454,1.4505533018,1.7456601274c25.237129369,30.3198947848,55.3242861241,36.6861750453,76.1185755724,36.6861750453,9.2996121298,0,16.597177587-1.2765202134,20.6105971071-2.1854892055,7.4944143668,1.6077659674,14.5430042573,2.1854892055,20.7579839811,2.1854892055,14.1166648253,0,23.6292801322-2.943574008,24.0263919977-3.0681450608l.8595902259-.2724575433.6236046887-.6495014784c17.6670230991-18.3432540615,29.4799561421-37.3623227382,35.1142981981-56.5189524973,4.5480091985-15.4751221483,5.0993360304-31.0421737366,1.637409881-46.2811438089ZM263.9109088148,111.9583489654c1.6343289124-3.0879631828,4.1477330951-7.6587882025,7.5045732361-13.2175216248h41.3688308965c-3.3537591724,5.5519053298-5.877238955,10.129558442-7.5113180592,13.2175216248h-41.3620860734ZM286.9726245782,138.3865641226c-5.7291026562-3.487989478-11.4584551207-7.8293239753-17.0336758882-13.214190848h41.358838566c5.5782184666,5.3848668727,11.3075709311,9.72620137,17.0403374419,13.214190848h-41.3655001197ZM321.2469008642,85.5268030314h-41.371911865c2.8517278374-4.2104349686,6.0149665762-8.6565223967,9.4799736941-13.2145239257h41.371911865c-3.465007118,4.558001529-6.6349906798,9.0040889571-9.4799736941,13.2145239257ZM341.4572218679,59.0947574809h-41.371911865c3.8685307288-4.4559132197,7.9998597481-8.8991694875,12.3871589655-13.2108600712h41.371911865c-4.3872992173,4.3116905837-8.5186282367,8.7549468515-12.3871589655,13.2108600712ZM368.7419462823,32.6663757849h-41.3752426418c4.6434359542-3.6881691644,9.5028727847-7.1500120444,14.5696504718-10.290434962h41.3684978188c-5.0106540978,3.1109455428-9.9688484608,6.641568964-14.5629056488,10.290434962Z"/>
      <path class="cls-4" d="M372.9781253585,8.6366055858c-11.0384438755,2.9599602617-21.4109051093,7.7673335689-31.041780223,13.7393364898h41.1518133826c-5.2536017166-8.8204060471-10.1100331596-13.7393364898-10.1100331596-13.7393364898"/>
      <path class="cls-3" d="M429.7661086712,32.6664157972h-41.3652097155c1.7553447629,3.9804392394,3.3766193573,8.4003867115,4.6726309864,13.2141443126h41.3651831997c-1.2892913199-4.8137576012-2.9135900534-9.2337050733-4.6726044706-13.2141443126"/>
      <path class="cls-3" d="M395.9709912534,72.3122088898h41.3655459222c.2099829555-4.6037479334.0490315502-9.0173111116-.4103015836-13.2141443126h-41.3655192152c.4563089946,4.1968332011.6169243845,8.6103963793.4102748766,13.2141443126"/>
      <path class="cls-3" d="M390.7110307721,98.7408335305h41.361797516c1.5950653885-4.5284804684,2.7892643332-8.9353233373,3.6424075861-13.2141443126h-41.361797424c-.853168874,4.2788209754-2.0510639888,8.6890239989-3.6424076781,13.2141443126"/>
      <path class="cls-3" d="M377.2704120338,125.1691221558h41.3685181647c2.9891935319-4.4824463493,5.5587037543-8.8926493728,7.7538927543-13.2107841579h-41.3685433543c-2.195189,4.3181347852-4.7613390678,8.7283378087-7.7538675647,13.2107841579"/>
      <path class="cls-3" d="M367.3898522437,138.3866266231c-2.8480670387,3.4323980103-5.9521778579,6.9041098304-9.3254370606,10.4087511665l-.9058976801.9448754973c24.3974105176,5.4602513625,42.2677207252-.9448754973,42.2677207252-.9448754973,3.3766193572-3.504641336,6.4743458827-6.9763531561,9.3224129214-10.4087511665"/>
      <path class="cls-3" d="M414.3470047283,8.6366055858c-11.045474353,2.9599602617-21.4112411248,7.7673335689-31.0421162385,13.7393364898h41.148815625c-5.2569882528-8.826790341-10.1066993866-13.7393364898-10.1066993866-13.7393364898"/>
      <path class="cls-4" d="M393.073529942,45.8839202645c-1.29298749-4.8137576011-2.9139260689-9.2337050733-4.6726309864-13.2141443126l-61.0341841646-.0033601547c-5.2435212528,4.1642397006-10.2148699831,8.613756534-14.8942212787,13.2141443126"/>
      <path class="cls-2" d="M436.9262355919,59.0947044225c-.5053672518-4.6759912591-1.3749752622-9.0892184218-2.4875224502-13.2107841579h-80.597676275c-4.3870178454,4.315110646-8.5183279257,8.7579071699-12.3872099318,13.2175044673"/>
      <path class="cls-4" d="M395.5607163767,59.1014247318h-.0557785664c-.0557785664,0-95.4230143844-.0033601547-95.4230143844-.0033601547-3.835952491,4.4266677815-7.4192213562,8.8698003209-10.7269575441,13.2141443126l106.6160253714.0033601547c.2066495079-4.6037479334.046034118-9.0139509569-.4102748766-13.2141443126"/>
      <path class="cls-2" d="M437.3365371755,72.3122088898l-106.6130279393.0033601547c-3.4649914232,4.5580498296-6.631601118,9.0042065083-9.4800041722,13.2141443126l114.4717308101-.0030241392c.9058976801-4.5580498296,1.4243695348-8.9682528532,1.6213013014-13.2144803281"/>
      <path class="cls-4" d="M279.8749617098,85.5266892179c-3.2287725549,4.7744437913-6.0573506969,9.2434495218-8.4561425501,13.2141443126l119.285491303.0030241392c1.5980639987-4.5247842983,2.7959591135-8.9349873218,3.6491279875-13.2141443126"/>
      <path class="cls-2" d="M432.0728282881,98.7408335305l-119.2885124288.0063842939c-3.353770306,5.5455992914-5.8802705495,10.126498173-7.5112895922,13.2111201734h121.1197966856c2.287257236-4.5056314166,4.1642395954-8.9124742854,5.6800053353-13.2175044673"/>
      <path class="cls-4" d="M263.9108672066,111.9583379978c-1.4599871736,2.7529747331-2.2146778967,4.3312393884-2.2146778967,4.3312393884,2.6971960972,3.2388531005,5.4501707607,6.1887328981,8.2427952485,8.8795447695l107.3314274753.0067203094c2.9891683423-4.4891666586,5.5553184101-8.8926493728,7.7471472555-13.2175044673"/>
      <path class="cls-2" d="M418.6355700439,125.1691221558l-107.3475310278.0067203094c5.4404263124,5.2764509012,11.7897982646,9.8801988346,17.0500964698,13.2141443126l80.4105156638-.0033601547c3.71465091-4.4727019007,6.996177892-8.8795447695,9.8869188942-13.2175044673"/>
      <path class="cls-2" d="M429.7661086712,32.6664157972c-1.6995927123-3.8524173459-3.5308769691-7.2979199595-5.3124045563-10.2904737216h-41.148815625c-.0524184118.0329295159-.105172839.0624988771-.1575659127.0950923776-5.0073277225,3.1141913617-9.8113407538,6.546589372-14.4120644317,10.1987414987"/>
      <path class="cls-1" d="M528.1228475208,1.8968073195c-19.8296163547,0-38.8682523167,8.3906422629-52.2430116853,23.0157155276-17.0043983673,18.7268140882-25.9659306847,46.8845743296-23.974031038,75.3245875645,2.5234761044,36.0887333435,23.3765955502,56.7879582315,57.2177205702,56.7879582315,20.4136112241,0,38.4253839404-7.7508688109,52.1022212076-22.4118957308,17.2601061323-18.5205005905,26.3691492367-46.7437838483,24.3577606933-75.5083880258-2.5429650011-36.3548575945-23.4817683891-57.2079775671-57.4606597478-57.2079775671M511.7125244867,129.001714589c-15.7211271369,0-24.3970465325-10.083488193-25.7918746764-29.9655234617-1.2795468716-18.3561890265,3.353798325-44.5583392414,16.5581698364-58.7173590514,6.4313359038-6.8977255365,14.3330754605-10.3956465632,23.4750770256-10.3956465632,15.8787176307,0,23.9478224371,9.5882013925,25.3849310088,30.175869145,1.2503135266,17.8998800203-2.1132012278,43.9773684965-15.7114108773,58.5597677967-6.3987424042,6.8647960206-14.4446325932,10.3428921346-23.914892317,10.3428921346Z"/>
      <path class="cls-1" d="M630.3713439435,8.1675279918c-5.3322293343,0-10.4282398002,2.1854446069-13.988659614,6.0015722821-3.2025321998,3.435758165-4.7909084283,7.8721703951-4.4659503612,12.4826386378.5970683551,8.5085836923,8.4232044333,13.0958668677,15.48490534,13.0958668677,5.082905863,0,9.9985077879-2.1457947816,13.4930686599-5.8933753013,3.2519257723-3.4848164234,4.8664800574-7.9571823086,4.5381929531-12.587475464-.5349366123-7.7112189857-6.7300536478-13.0992270224-15.0615569777-13.0992270224"/>
      <path class="cls-1" d="M634.2039362799,47.8724598069c-.2426031621,0-.4986469426.0067203094-.6364132812.0131046033h-14.6418736682c-6.7626471474,0-8.2525396969,4.4824463492-8.5381528379,7.153433308l-9.7095027313,91.3542054874c-.2755326772,2.6021037878.2066495079,4.5610739689,1.4929166886,5.9854435397,1.29298749,1.4371381586,3.2092836582,2.1394104877,5.8671659466,2.1394104877h14.635153359c6.4313359038,0,8.1772722339-4.1313101847,8.5153037866-7.5704285044l9.706174426-91.2980909041c.2099778132-1.6310190839.3054062038-4.0066484459-1.256697852-5.7885384751-1.1781020202-1.3386856263-2.9566318498-1.9885395423-5.4340738362-1.9885395423"/>
      <path class="cls-1" d="M700.0387733211,0c-.1838004566,0-.3773453615.0067203094-.7251213626.0329295159l-17.476836104,2.1000966779c-4.3510641912.623308694-6.4152071618,2.8154736102-6.9007495014,7.3274893207l-14.6647227195,137.1426973589-.0456657649.2133698225.0160964044.2264744257c-.0524184118.2919974421-.134406184.7315056748-.0984525298,1.27316261.2657882288,3.7670694169,3.0355636654,6.2018375013,7.0583407521,6.2018375013h15.8918511793c4.3645048096,0,7.1567932819-2.7596950425,7.6752651367-7.5704285044l14.9009415879-139.6298838564c.1048368235-.9025375483.4166591704-3.6491279875-1.3158365412-5.581888962-.7056324659-.794004552-2.0312134555-1.7358559101-4.3151105369-1.7358559101"/>
      <path class="cls-1" d="M763.3041001398,69.8512315988c6.0707913153,0,13.4013398702,1.6276589292,21.9098880674,4.8826407722.6236446937.2069855286,1.8376685506.5514013837,2.9371111356.5514013837,2.5920232582,0,4.7546187586-1.5456711549,5.6635405778-4.0819159108l3.7341398067-11.0979188923c.4365199003-1.0040142198.9747808494-2.2576879326.8662478558-3.7143149883-.1868245957-2.7630551971-2.3262350294-4.0036243067-3.4421423719-4.6467579133-11.2124998838-5.9326891111-25.3684951969-6.5758227178-30.9369433995-6.5758227178-14.0508224741,0-27.2619423138,5.1716140751-35.3374018633,13.827708558-6.0805357636,6.5237403201-8.9615323174,14.7796403802-8.3247830208,23.8886837146,1.2664422686,18.0117731713,17.371663265,24.2233551212,26.0411981477,27.5636848932,1.276186717.479158058,2.5493492948.9452115128,3.8030229759,1.4011845035,8.2821438776,3.0157388294,15.4355421847,5.6212027719,15.7836542012,10.5465175085.1703598382,2.4579531518-.4791580459,4.4364122301-1.985515353,6.0543267107-2.3591645445,2.529860462-6.9827372737,4.1017408235-12.0589228274,4.1017408235-8.7777318608,0-17.1717340663-3.3436899266-24.574490665-6.2939057397l-.7415861202-.2100096678c-.7153769143-.1838004613-1.5292063583-.393810129-2.5530454649-.393810129-1.4700676374,0-4.1541591316.6071799515-5.6241929601,4.6991763264l-3.5900229832,10.5169481473c-.4230434641.9909096165-.9515957826,2.2247584167-.8497830983,3.6847456271.2100096625,2.9797851743,2.3527802507,4.213297959,3.429037769,4.8335825138,9.0861940531,4.9582442526,23.2028755574,7.6359515207,31.8724104401,7.6359515207,14.8055131972,0,27.6292072116-4.6531422072,36.1216619469-13.1059473318,7.2582699508-7.2780950468,11.1829305233-17.4143376684,10.5068674178-27.1174563511-1.2009192539-17.1717345001-16.9681086976-23.5341873954-26.3956593584-27.3375464829-1.1908738898-.4757979033-2.3722692073-.9351310487-3.5339096921-1.3880799002-7.550603401-2.940135349-14.0740075409-5.4831004143-14.3562605273-9.52906267-.1411264932-2.0214690583.4300997888-3.6884417973,1.7392160208-5.0960105947,2.0379337647-2.1854446069,5.9263046675-3.5997337136,9.8966633425-3.5997337136"/>
    </g>
  </g>
</svg>