<svg width="242" height="86" viewBox="0 0 242 86" fill="none" xmlns="http://www.w3.org/2000/svg">
<path d="M126.941 44.4029H129.331C128.452 46.5533 127.58 48.6971 126.692 50.8474C125.813 52.9881 124.931 55.1319 124.053 57.2822H121.663C122.551 55.1319 123.423 52.9881 124.302 50.8474C125.19 48.6971 126.062 46.5533 126.941 44.4029ZM130.311 57.279H127.921C128.8 55.1286 129.671 52.9848 130.56 50.8442C131.438 48.6939 132.31 46.55 133.199 44.3997H135.588C134.7 46.55 133.828 48.6939 132.95 50.8442C132.061 52.9848 131.189 55.1286 130.311 57.279ZM122.532 60.9504C121.975 62.3061 121.421 63.6489 120.863 64.9949H124.735C125.292 63.6489 125.846 62.3029 126.403 60.9504H130.95C131.986 60.9504 132.95 60.2564 133.359 59.2671C134.507 56.4584 135.664 53.6464 136.814 50.8474C137.962 48.0387 139.129 45.2267 140.279 42.418C140.686 41.4288 140.306 40.725 139.289 40.725H134.723C135.018 39.992 135.326 39.2525 135.621 38.5195H131.75C131.461 39.2525 131.156 39.992 130.852 40.725H126.285C125.256 40.725 124.312 41.4288 123.905 42.418C122.758 45.2267 121.601 48.0387 120.45 50.8474C119.303 53.6497 118.146 56.4584 116.985 59.2671C116.579 60.2564 116.939 60.9504 117.965 60.9504H122.532ZM133.172 64.6284H142.758C143.259 63.4024 143.757 62.1764 144.259 60.9504H138.545C139.129 59.5396 139.702 58.132 140.286 56.7211C140.869 55.3103 141.453 53.9027 142.027 52.4918H147.547C148.048 51.2658 148.547 50.0399 149.055 48.8139H143.535C144.387 46.7284 145.249 44.6494 146.108 42.564H151.822C152.323 41.338 152.821 40.112 153.323 38.886H143.748C141.977 43.1802 140.211 47.4711 138.45 51.7653C136.69 56.0498 134.93 60.3504 133.172 64.6349V64.6284ZM155.991 64.6284C156.575 63.2175 157.158 61.8099 157.742 60.3991C158.315 58.9882 158.899 57.5806 159.463 56.1698H155.611C154.962 57.7622 154.306 59.3547 153.647 60.9472H150.146C151.415 57.8887 152.664 54.814 153.926 51.7588C155.185 48.6939 156.444 45.6257 157.712 42.5607H161.203C160.695 43.7867 160.194 45.0127 159.696 46.2387H163.557C164.059 45.0127 164.557 43.7867 165.065 42.5607C165.573 41.3347 166.075 40.1088 166.583 38.8828H157.044C156.008 38.8828 155.054 39.5866 154.644 40.5758C153.116 44.3024 151.579 48.0355 150.051 51.7588C148.524 55.4854 146.996 59.2088 145.469 62.9354C145.072 63.9343 145.423 64.6284 146.459 64.6284H155.988H155.991ZM166.353 42.564H170.031C168.523 46.2419 167.012 49.9231 165.504 53.601C163.987 57.279 162.466 60.9504 160.958 64.6316H164.829C166.33 60.9537 167.858 57.2822 169.366 53.601C170.874 49.9231 172.395 46.2419 173.893 42.564H177.578C178.079 41.338 178.577 40.112 179.079 38.886H167.865C167.363 40.112 166.855 41.338 166.357 42.564H166.353ZM181.95 64.6284C183.721 60.3439 185.471 56.053 187.238 51.7588C189.008 47.4647 190.765 43.1737 192.535 38.8795H188.654C188.071 40.2904 187.487 41.7077 186.914 43.1186C185.589 44.5911 184.284 46.0733 182.977 47.549C181.672 49.0215 180.348 50.5037 179.059 51.9794C179.938 49.7998 180.836 47.6138 181.734 45.4343C182.632 43.2483 183.531 41.0688 184.429 38.8795H180.557C178.787 43.1737 177.03 47.4647 175.26 51.7588C173.5 56.0433 171.739 60.3439 169.982 64.6284H173.854C174.604 62.7797 175.371 60.931 176.142 59.0725C177.446 57.6001 178.754 56.1179 180.059 54.6421C181.364 53.1697 182.688 51.6875 184.006 50.2118C183.016 52.6183 182.023 55.0184 181.033 57.4249C180.043 59.8218 179.069 62.2316 178.079 64.6284H181.95ZM198.026 48.8139H194.525C195.387 46.7284 196.24 44.6494 197.092 42.564H200.583C199.741 44.6494 198.879 46.7284 198.026 48.8139ZM196.508 52.4951C195.925 53.9059 195.341 55.3135 194.768 56.7244C194.184 58.1352 193.601 59.5428 193.027 60.9537H189.526C190.11 59.5428 190.683 58.1352 191.267 56.7244C191.85 55.3135 192.424 53.9059 193.007 52.4951H196.508ZM205.261 40.5758C205.667 39.5866 205.297 38.8828 204.271 38.8828H194.742C192.971 43.177 191.214 47.4679 189.444 51.7621C187.674 56.0562 185.924 60.3472 184.157 64.6316H193.686C194.715 64.6316 195.686 63.9375 196.086 62.9386C196.725 61.3721 197.374 59.8088 198.013 58.2325C198.662 56.666 199.318 55.093 199.957 53.5264C200.567 52.0151 200.196 51.0648 199.216 50.6528C200.521 50.2507 201.698 49.2615 202.311 47.789C202.802 46.5889 203.301 45.3824 203.783 44.1824C204.274 42.9824 204.773 41.7758 205.264 40.5758H205.261ZM208.159 38.8828C206.389 43.177 204.632 47.4679 202.871 51.7621C201.111 56.0465 199.344 60.3472 197.594 64.6316H201.455C202.039 63.2208 202.622 61.8132 203.206 60.4023C203.779 58.9915 204.363 57.5838 204.927 56.173H208.611C208.047 57.5838 207.464 58.9915 206.88 60.4023C206.307 61.8132 205.723 63.2208 205.14 64.6316H209.011C210.781 60.3472 212.532 56.0562 214.299 51.7621C216.069 47.4679 217.826 43.177 219.596 38.8828H208.159ZM210.132 52.4951H206.448C207.133 50.8377 207.818 49.1901 208.493 47.5328C209.168 45.8754 209.854 44.2181 210.532 42.564H214.21C213.545 44.2213 212.86 45.8787 212.181 47.5328C211.496 49.1901 210.821 50.8377 210.136 52.4951H210.132ZM225.736 42.564H227.644C226.126 46.2419 224.615 49.9231 223.107 53.601C221.599 57.2725 220.088 60.9504 218.58 64.6316H222.432C224.202 60.3472 225.959 56.0562 227.729 51.7621C229.499 47.4679 231.25 43.177 233.017 38.8828H223.599C221.868 42.5607 220.153 46.2419 218.432 49.9199C216.718 53.5978 215.007 57.279 213.273 60.9504H211.791L210.29 64.6284H215.41C217.124 60.9504 218.855 57.279 220.57 53.5978C222.284 49.9198 224.005 46.2387 225.736 42.5607V42.564ZM233.662 52.1286H237.154C236.544 53.601 235.931 55.0768 235.328 56.5395C234.718 58.012 234.115 59.4877 233.502 60.9504H230.02C230.624 59.4844 231.233 58.012 231.846 56.5395C232.449 55.0735 233.059 53.601 233.662 52.1286ZM234.184 64.6284C235.213 64.6284 236.173 63.9343 236.583 62.9354C237.462 60.811 238.344 58.6704 239.212 56.5363C240.084 54.4021 240.963 52.2713 241.841 50.1372C242.248 49.1382 241.861 48.4441 240.832 48.4441H235.174C235.832 46.8517 236.478 45.2592 237.137 43.6667C237.796 42.0742 238.442 40.472 239.111 38.8795H235.219C233.449 43.1737 231.699 47.4647 229.932 51.7588C228.162 56.053 226.405 60.3439 224.635 64.6284H234.184Z" fill="#E6E6E6"/>
<path d="M61.484 69.3772H63.5492C62.7985 71.4464 62.0413 73.5157 61.2906 75.5719C60.5399 77.6412 59.7827 79.7104 59.032 81.7667H61.2349C61.9855 79.7072 62.7428 77.6379 63.4935 75.5719C64.2441 73.5124 65.0014 71.4432 65.7521 69.3772H67.8271C68.0762 68.6896 68.3286 68.0053 68.568 67.3079H62.2248C61.9855 68.002 61.7331 68.6896 61.484 69.3772ZM64.1786 81.77H69.5874C69.8366 81.0824 70.089 80.398 70.3381 79.7104H67.0961C67.3846 78.9126 67.6698 78.1277 67.9582 77.3298C68.2467 76.5417 68.5319 75.7471 68.8204 74.959H71.9313C72.1902 74.2649 72.4394 73.5773 72.6918 72.8897H69.571C69.9972 71.7189 70.4332 70.548 70.8593 69.3739H74.1112C74.3603 68.6863 74.6128 68.002 74.8422 67.3047H69.4334C68.5712 69.721 67.6927 72.1275 66.8109 74.5341C65.9324 76.9504 65.0506 79.3569 64.1819 81.7635L64.1786 81.77ZM75.8748 76.3795H75.9502C75.8388 77.2844 75.8125 78.1828 75.7011 79.078C75.5798 79.9764 75.5241 80.8716 75.4519 81.77H77.6548C77.7302 80.5083 77.7925 79.2337 77.8876 77.9623C77.9793 76.6909 78.081 75.4163 78.1924 74.1546C78.9431 73.0097 79.6938 71.8745 80.451 70.7329C81.2017 69.5977 81.9688 68.4528 82.7391 67.3112H80.5527C80.0511 68.0896 79.5233 68.8582 79.0513 69.6366C78.5792 70.415 78.0416 71.1934 77.5598 71.9621H77.4844C77.5401 71.1934 77.622 70.415 77.6876 69.6366C77.7433 68.868 77.8449 68.0896 77.9203 67.3112H75.7339C75.6421 68.4561 75.5765 69.601 75.5208 70.7329C75.4552 71.8778 75.3897 73.013 75.3339 74.1546C74.4915 75.4163 73.6293 76.6909 72.8065 77.9623C72.0001 79.2239 71.1576 80.5083 70.3348 81.77H72.5213C73.0589 80.8716 73.6228 79.9861 74.1899 79.078C74.7537 78.1796 75.3012 77.2844 75.8748 76.3795ZM88.3119 67.3079C87.9775 68.242 87.6366 69.1761 87.2924 70.1004C86.9482 71.0345 86.6073 71.9589 86.2729 72.8929H83.8832C84.2274 71.9589 84.5683 71.0345 84.9125 70.1004C85.2469 69.1761 85.5878 68.242 85.932 67.3079H83.7291C82.867 69.7242 81.9885 72.1308 81.1067 74.5373C80.2281 76.9536 79.3562 79.3602 78.4776 81.7667H80.6805C81.087 80.6315 81.4967 79.4964 81.8934 78.3612C82.2999 77.226 82.7162 76.0909 83.1358 74.9557H85.5157C85.1092 76.0909 84.6831 77.226 84.2831 78.3612C83.8766 79.4964 83.4767 80.6315 83.0604 81.7667H85.2633C86.1418 79.3602 87.0236 76.9536 87.9021 74.5373C88.7807 72.1308 89.6526 69.7242 90.5148 67.3079H88.3119ZM93.2946 81.77C94.1731 79.3634 95.0549 76.9569 95.9335 74.5406C96.812 72.134 97.684 69.7275 98.5625 67.3112H96.376C96.0711 68.109 95.7827 68.9036 95.4975 69.6918C94.7828 70.5253 94.1076 71.3589 93.406 72.1827C92.6914 73.0162 91.9899 73.84 91.295 74.6735C91.7408 73.4476 92.1833 72.2216 92.639 70.9956C93.0848 69.7696 93.5273 68.5436 93.983 67.3177H91.7801C90.918 69.7339 90.0395 72.1405 89.1576 74.547C88.2791 76.9633 87.4071 79.3699 86.5286 81.7764H88.7151C89.0855 80.7418 89.4658 79.6975 89.846 78.6564C90.541 77.8326 91.2622 76.999 91.9571 76.1752C92.6619 75.3417 93.3569 74.5081 94.0584 73.6843C93.5667 75.0303 93.0782 76.3763 92.5865 77.7288C92.0948 79.0747 91.5965 80.4272 91.1311 81.7732H93.2979L93.2946 81.77ZM96.5432 76.0682C96.3301 76.6358 96.5432 77.0185 97.1267 77.0185H100.441C100.152 77.8163 99.8672 78.6012 99.5885 79.3991C99.3099 80.1872 99.0313 80.9818 98.7461 81.77H100.949C101.821 79.3634 102.699 76.9569 103.578 74.5406C104.456 72.134 105.338 69.7275 106.2 67.3112H103.998C103.526 68.5923 103.063 69.8637 102.598 71.1383C102.126 72.4097 101.664 73.6843 101.198 74.9654H99.0968C99.5689 73.6843 100.031 72.4129 100.497 71.1383C100.969 69.8669 101.431 68.5923 101.896 67.3112H99.7295C99.1919 68.7772 98.6641 70.2399 98.1363 71.6962C97.6086 73.1622 97.071 74.6152 96.5432 76.0714V76.0682ZM102.185 81.77H107.63C107.889 81.0824 108.138 80.398 108.39 79.7104H105.138C105.427 78.9126 105.712 78.1277 106 77.3298C106.289 76.5417 106.574 75.7471 106.863 74.959H110.003C110.252 74.2649 110.505 73.5773 110.754 72.8897H107.623C108.049 71.7189 108.475 70.548 108.911 69.3739H112.153C112.403 68.6863 112.655 68.002 112.884 67.3047H107.456C106.577 69.721 105.696 72.1275 104.827 74.5341C103.948 76.9504 103.067 79.3569 102.188 81.7635L102.185 81.77ZM115.14 81.77C115.428 80.9818 115.713 80.1872 116.002 79.3991C116.29 78.6012 116.576 77.8163 116.864 77.0185H114.661C114.337 77.9169 114.032 78.812 113.707 79.7104H111.724C112.344 77.9882 112.973 76.2693 113.606 74.5406C114.235 72.8184 114.855 71.0994 115.487 69.3772H117.477C117.228 70.0648 116.976 70.7588 116.726 71.4464H118.913C119.162 70.7588 119.414 70.0648 119.664 69.3772C119.913 68.6896 120.165 68.0053 120.414 67.3079H115.005C114.412 67.3079 113.884 67.7004 113.681 68.2582C112.914 70.3534 112.18 72.4583 111.422 74.5373C110.655 76.6422 109.875 78.7212 109.108 80.8164C108.905 81.3743 109.164 81.7667 109.757 81.7667H115.146L115.14 81.77ZM123.892 73.9276C124.659 72.8216 125.43 71.7221 126.197 70.6226C126.974 69.5166 127.76 68.4172 128.55 67.3079H126.253C125.594 68.242 124.954 69.1761 124.299 70.1004C123.64 71.0345 122.994 71.9589 122.325 72.8929H121.722C122.057 71.9589 122.397 71.0345 122.742 70.1004C123.086 69.1761 123.417 68.242 123.761 67.3079H121.558C120.68 69.7242 119.798 72.1308 118.929 74.5373C118.051 76.9536 117.169 79.3602 116.29 81.7667H118.493C118.91 80.6315 119.316 79.4964 119.736 78.3612C120.142 77.226 120.558 76.0909 120.968 74.9557H121.526C121.444 76.0909 121.358 77.226 121.257 78.3612C121.165 79.4964 121.08 80.6315 120.988 81.7667H123.302C123.394 80.4661 123.479 79.1591 123.591 77.8488C123.692 76.5385 123.784 75.2314 123.896 73.9211L123.892 73.9276ZM130.829 81.77C131.701 79.3634 132.579 76.9569 133.458 74.5406C134.336 72.134 135.218 69.7275 136.097 67.3112H133.894C133.589 68.109 133.3 68.9036 133.015 69.6918C132.294 70.5253 131.615 71.3589 130.914 72.1827C130.199 73.0162 129.498 73.84 128.803 74.6735C129.249 73.4476 129.701 72.2216 130.147 70.9956C130.593 69.7696 131.045 68.5436 131.491 67.3177H129.304C128.426 69.7339 127.544 72.1405 126.675 74.547C125.797 76.9633 124.915 79.3699 124.037 81.7764H126.223C126.603 80.7418 126.984 79.6975 127.354 78.6564C128.059 77.8326 128.76 77.0087 129.475 76.1752C130.18 75.3417 130.875 74.5081 131.566 73.6843C131.084 75.0303 130.593 76.3763 130.094 77.7288C129.603 79.0747 129.114 80.4272 128.632 81.7732H130.835L130.829 81.77ZM137.228 76.3795H137.273C137.192 77.2844 137.126 78.1828 137.024 79.078C136.933 79.9764 136.847 80.8716 136.775 81.77H138.962C139.053 80.5083 139.129 79.2337 139.211 77.9623C139.303 76.6909 139.414 75.4163 139.516 74.1546C140.266 73.0097 141.024 71.8745 141.794 70.7329C142.554 69.5977 143.302 68.4528 144.108 67.3112H141.905C141.378 68.0896 140.87 68.8582 140.378 69.6366C139.896 70.4053 139.398 71.1934 138.886 71.9621H138.84C138.906 71.1934 138.962 70.415 139.034 69.6366C139.109 68.868 139.171 68.0896 139.267 67.3112H137.064C136.972 68.4561 136.926 69.601 136.851 70.7329C136.775 71.8778 136.719 73.013 136.674 74.1546C135.831 75.4163 134.969 76.6812 134.146 77.9623C133.323 79.2239 132.497 80.5083 131.655 81.77H133.858C134.415 80.8716 134.979 79.9861 135.543 79.078C136.09 78.1893 136.674 77.2844 137.228 76.3795ZM150.776 72.8929H148.786C149.212 71.7221 149.648 70.5513 150.074 69.3772H152.064C151.628 70.548 151.202 71.7189 150.776 72.8929ZM150.019 74.9622C149.73 75.7503 149.445 76.5449 149.157 77.3331C148.868 78.1309 148.583 78.9158 148.294 79.7137H146.311C146.6 78.9158 146.885 78.1309 147.173 77.3331C147.462 76.5449 147.737 75.7503 148.026 74.9622H150.015H150.019ZM154.647 68.2615C154.851 67.7036 154.628 67.3112 154.054 67.3112H148.619C147.74 69.7275 146.868 72.134 145.99 74.5406C145.111 76.9569 144.23 79.3634 143.351 81.77H148.77C149.363 81.77 149.871 81.3775 150.074 80.8197C150.389 79.9407 150.723 79.0618 151.048 78.1828C151.363 77.3039 151.687 76.4152 152.012 75.5363C152.317 74.6865 152.068 74.1546 151.51 73.9243C152.241 73.6941 152.871 73.1362 153.179 72.3124C153.671 70.9567 154.152 69.6042 154.651 68.2582L154.647 68.2615ZM157.778 81.77C158.656 79.3634 159.538 76.9569 160.417 74.5406C161.295 72.134 162.167 69.7275 163.046 67.3112H160.843C160.538 68.109 160.25 68.9036 159.964 69.6918C159.25 70.5253 158.565 71.3491 157.873 72.1827C157.168 73.0162 156.457 73.84 155.762 74.6735C156.208 73.4476 156.65 72.2216 157.106 70.9956C157.552 69.7696 157.994 68.5436 158.45 67.3177H156.263C155.385 69.7339 154.503 72.1405 153.625 74.547C152.746 76.9633 151.874 79.3699 150.996 81.7764H153.182C153.552 80.7418 153.933 79.6975 154.313 78.6564C155.008 77.8326 155.713 77.0087 156.424 76.1752C157.129 75.3417 157.824 74.5081 158.525 73.6843C158.034 75.0303 157.545 76.3763 157.053 77.7288C156.562 79.0747 156.063 80.4272 155.582 81.7732H157.785L157.778 81.77ZM162.318 79.7104C163.049 77.9882 163.8 76.2693 164.541 74.5406C165.272 72.8184 166.042 71.0994 166.783 69.3772H167.727C167.107 71.0994 166.478 72.8184 165.845 74.5406C165.216 76.2693 164.596 77.9915 163.964 79.7104H162.315H162.318ZM165.485 67.3079C164.577 69.3772 163.652 71.4464 162.761 73.5124C161.882 75.5719 160.99 77.6412 160.092 79.7072H159.269C158.788 81.024 158.296 82.344 157.814 83.6706H160.017C160.23 83.0381 160.463 82.4089 160.702 81.7667H163.944C163.711 82.4089 163.482 83.0381 163.259 83.6706H165.445C165.917 82.344 166.399 81.024 166.881 79.7072H166.15C166.901 77.6379 167.658 75.5687 168.409 73.5124C169.159 71.4432 169.91 69.3739 170.687 67.3079H165.481H165.485ZM169.91 79.7104C170.54 77.9882 171.169 76.2693 171.798 74.5406C172.418 72.8184 173.047 71.0994 173.68 69.3772H175.883C175.253 71.0994 174.624 72.8184 174.001 74.5406C173.372 76.2693 172.742 77.9915 172.113 79.7104H169.91ZM172.605 81.77C173.178 81.77 173.69 81.3775 173.893 80.8197C174.66 78.7342 175.421 76.6358 176.191 74.5406C176.952 72.4551 177.699 70.3567 178.459 68.2615C178.673 67.7036 178.459 67.3112 177.876 67.3112H173.208C172.624 67.3112 172.106 67.7036 171.903 68.2615C171.143 70.3567 170.376 72.4519 169.605 74.5406C168.845 76.6358 168.097 78.7309 167.337 80.8197C167.134 81.3872 167.357 81.77 167.94 81.77H172.608H172.605ZM182.229 72.8929H180.239C180.666 71.7221 181.102 70.5513 181.528 69.3772H183.501C183.095 70.548 182.659 71.7189 182.233 72.8929H182.229ZM181.479 74.9622C181.19 75.7503 180.915 76.5449 180.616 77.3331C180.321 78.1309 180.023 78.9158 179.738 79.7137H177.764C178.053 78.9158 178.338 78.1309 178.627 77.3331C178.915 76.5449 179.2 75.7503 179.489 74.9622H181.479ZM186.101 68.2615C186.304 67.7036 186.081 67.3112 185.491 67.3112H180.102C179.204 69.7275 178.325 72.134 177.443 74.5406C176.565 76.9569 175.693 79.3634 174.814 81.77H180.223C180.816 81.77 181.334 81.3775 181.528 80.8197C181.852 79.9407 182.177 79.0618 182.501 78.1828C182.826 77.3039 183.15 76.4152 183.465 75.5363C183.78 74.6865 183.521 74.1546 182.964 73.9243C183.685 73.6941 184.334 73.1362 184.632 72.3124C185.124 70.9567 185.612 69.6042 186.104 68.2582L186.101 68.2615ZM192.352 81.77C192.64 80.9818 192.935 80.1969 193.231 79.3991C193.526 78.611 193.804 77.8163 194.093 77.0185H191.89C191.565 77.9169 191.241 78.812 190.916 79.7104H188.933C189.552 77.9882 190.182 76.2693 190.815 74.5406C191.444 72.8184 192.064 71.0994 192.696 69.3772H194.686C194.437 70.0648 194.184 70.7588 193.935 71.4464H196.122C196.371 70.7588 196.623 70.0648 196.872 69.3772C197.122 68.6896 197.374 68.0053 197.64 67.3079H192.231C191.637 67.3079 191.11 67.7004 190.906 68.2582C190.139 70.3534 189.389 72.4486 188.628 74.5373C187.861 76.6325 187.1 78.7277 186.33 80.8164C186.127 81.3743 186.366 81.7667 186.96 81.7667H192.349L192.352 81.77ZM198.787 67.3079C197.889 69.7242 197.01 72.1308 196.138 74.5373C195.26 76.9536 194.378 79.3602 193.499 81.7667H195.702C196.453 79.7072 197.21 77.6379 197.961 75.5719C198.711 73.5124 199.469 71.4432 200.219 69.3772H202.524C201.773 71.4464 201.023 73.5157 200.272 75.5719C199.511 77.6412 198.764 79.7104 198.013 81.7667H200.18C201.059 79.3602 201.94 76.9536 202.809 74.5373C203.688 72.1308 204.569 69.7242 205.468 67.3079H198.78H198.787ZM204.419 79.7104C205.038 77.9882 205.668 76.2693 206.3 74.5406C206.93 72.8184 207.549 71.0994 208.182 69.3772H210.349C209.719 71.0994 209.1 72.8184 208.47 74.5406C207.841 76.2693 207.221 77.9915 206.589 79.7104H204.422H204.419ZM207.067 81.77C207.661 81.77 208.188 81.384 208.392 80.8197C209.159 78.7342 209.909 76.6358 210.67 74.5406C211.43 72.4551 212.198 70.3567 212.968 68.2615C213.171 67.7036 212.948 67.3112 212.358 67.3112H207.7C207.126 67.3112 206.599 67.7036 206.395 68.2615C205.628 70.3567 204.858 72.4519 204.097 74.5406C203.337 76.6358 202.58 78.7309 201.819 80.8197C201.616 81.3872 201.839 81.77 202.412 81.77H207.071H207.067ZM216.013 69.3772H218.105C217.76 70.3113 217.429 71.2356 217.085 72.1697C216.741 73.094 216.4 74.0281 216.066 74.9622H213.964C214.309 74.0281 214.65 73.094 214.984 72.1697C215.328 71.2356 215.669 70.3113 216.013 69.3772ZM216.551 77.0185C217.125 77.0185 217.636 76.626 217.839 76.0682C218.321 74.7676 218.803 73.4703 219.275 72.1697C219.747 70.8691 220.219 69.562 220.691 68.2615C220.894 67.7036 220.671 67.3112 220.098 67.3112H214.577C213.679 69.7275 212.801 72.134 211.929 74.5406C211.05 76.9569 210.168 79.3634 209.29 81.77H211.493C211.781 80.9818 212.066 80.1872 212.355 79.3991C212.643 78.6012 212.929 77.8163 213.217 77.0185H216.551ZM221.012 69.3772H223.104C222.353 71.4464 221.602 73.5157 220.845 75.5719C220.094 77.6412 219.344 79.7104 218.587 81.7667H220.789C221.55 79.7072 222.297 77.6379 223.048 75.5719C223.809 73.5124 224.556 71.4432 225.307 69.3772H227.392C227.641 68.6896 227.893 68.0053 228.159 67.3079H221.776C221.507 68.002 221.258 68.6896 221.009 69.3772H221.012ZM229.004 67.3079C228.106 69.7242 227.228 72.1308 226.346 74.5373C225.474 76.9536 224.595 79.3602 223.717 81.7667H225.903C226.192 80.9786 226.487 80.1937 226.782 79.3958C227.077 78.6077 227.355 77.8131 227.644 77.0152H229.735C229.447 77.8131 229.171 78.6077 228.873 79.3958C228.578 80.1937 228.28 80.9786 227.995 81.7667H230.198C231.076 79.3602 231.958 76.9536 232.836 74.5373C233.715 72.1308 234.597 69.7242 235.485 67.3079H229.001H229.004ZM230.486 74.9622H228.395C228.739 74.0281 229.08 73.094 229.414 72.1697C229.758 71.2356 230.08 70.3113 230.424 69.3772H232.515C232.171 70.3113 231.85 71.2356 231.515 72.1697C231.171 73.094 230.83 74.0281 230.486 74.9622Z" fill="#E6E6E6"/>
<path d="M230.673 83.9062C232.794 84.5938 234.961 85.2976 237.173 86.0014L175.421 84.4187L230.673 83.9062Z" fill="#E6E6E6"/>
<path d="M91.2487 8.83984H78.5691C71.3278 8.83984 64.7159 11.5383 59.7135 15.9687L63.3817 17.7525C67.558 14.493 72.8357 12.5437 78.5691 12.5437C92.1174 12.5437 103.102 23.3992 103.102 36.7877C103.102 50.1761 92.1174 61.0316 78.5691 61.0316C66.9548 61.0316 57.232 53.0595 54.6849 42.3435L50.5447 40.5499C52.3968 54.2044 64.2405 64.742 78.5691 64.742H91.2487C106.872 64.742 119.532 52.2292 119.532 36.7909C119.532 21.3526 106.872 8.83984 91.2487 8.83984ZM105.751 56.7634C110.17 51.9859 113.012 46.2647 113.854 40.2321C112.881 46.7674 109.4 52.9816 103.61 57.1655C108.101 52.213 110.963 46.2549 111.75 39.9856C110.852 46.7479 107.351 53.1924 101.47 57.5126C106.017 52.4043 108.898 46.2744 109.639 39.8104C108.787 46.722 105.269 53.3287 99.3391 57.7396C103.987 52.4595 106.895 46.0798 107.554 39.3693C106.777 46.5436 103.165 53.4357 96.9493 58.0055C102.368 51.9178 105.469 44.3868 105.505 36.5703C105.469 28.7539 102.365 21.2294 96.9493 15.1352C100.339 17.6423 103.079 20.9569 104.922 24.6641C105.967 26.7236 106.708 28.8934 107.164 31.1183C106.089 25.3873 103.368 19.9872 99.3391 15.4044C102.647 17.8855 105.322 21.1515 107.128 24.8133C108.026 26.6068 108.701 28.4847 109.147 30.4145C107.98 25.0338 105.322 19.9612 101.47 15.6314C104.784 18.0833 107.462 21.3137 109.268 24.9398C110.091 26.5582 110.724 28.2609 111.176 30.0026C109.944 24.8943 107.341 20.1007 103.61 15.9817C106.925 18.3882 109.603 21.5732 111.409 25.1344C112.176 26.6263 112.779 28.1734 113.225 29.7561C111.956 24.8976 109.39 20.3212 105.751 16.3838C109.065 18.745 111.743 21.8651 113.55 25.3549C119.06 35.8438 116.061 49.4723 105.751 56.7666V56.7634Z" fill="#E6E6E6"/>
<path fill-rule="evenodd" clip-rule="evenodd" d="M44.0543 22.1124C44.287 25.453 36.2852 25.2422 33.8758 21.6648C31.4762 18.0874 26.8935 17.2798 23.5859 16.6571C26.346 15.3954 33.8201 15.0743 38.7733 16.7868C42.2185 17.9771 43.969 20.8604 44.051 22.1124H44.0543ZM44.8017 19.122C45.5163 20.961 47.1062 22.8292 49.4238 24.3568C53.6755 27.1655 59.694 29.1342 62.1493 30.1234C64.7784 31.158 67.686 32.2089 69.7611 33.9408C67.0468 33.8046 64.2047 33.0262 61.5658 31.9916C57.6125 30.4737 47.0734 25.6119 44.664 24.1751C43.1462 26.1536 41.8121 26.4552 38.8651 25.9428C40.3271 26.6206 46.0342 27.2433 50.5908 29.4034C55.1572 31.5537 56.6946 31.9299 60.7332 34.703C64.7718 37.476 68.1876 40.515 70.0233 45.0622C71.1149 47.7801 71.3837 51.5618 71.1706 54.6008C72.1147 55.4052 73.3571 55.3695 74.3668 55.4344C74.8388 51.5067 74.4127 47.2255 73.0064 43.7195C71.9508 41.0924 70.4036 38.6761 68.4236 36.636C70.7019 36.7268 72.9343 36.5355 75.1666 36.0684C74.1111 34.356 72.4819 32.6727 70.7117 31.0348C73.5637 30.9148 76.3697 30.2304 78.9823 29.0564C82.4473 27.4898 86.3253 24.0584 88.7248 20.9091C87.7807 20.121 86.9284 19.6928 85.7877 19.362C83.8241 21.7037 80.4542 24.827 77.7662 26.0433C73.2555 28.0736 67.6533 28.0477 63.2442 27.0585C58.8352 26.0595 55.2424 24.8335 51.8889 22.9848C48.5256 21.1361 46.9259 17.7144 45.1852 12.5867C45.5196 15.3046 45.3786 17.1436 44.805 19.122H44.8017ZM57.0453 39.4318C56.2127 39.101 57.0814 39.4512 56.2488 39.1204C55.7767 36.182 54.6851 34.1224 52.5544 31.9624C54.813 32.9678 56.5077 34.2587 59.8711 36.3084C63.2344 38.368 66.1125 41.1961 67.9384 45.753C68.8366 47.9877 69.0759 51.6105 68.9842 54.1014C67.9089 53.6797 66.955 53.2419 65.8732 52.3273C65.7913 50.7445 65.5389 48.5391 64.9554 47.1023C63.4475 43.3303 60.8053 40.9237 57.0453 39.4318ZM62.7525 24.9957C59.6514 24.1913 56.1308 23.3384 52.5019 21.188C55.8095 21.214 58.4025 19.4139 59.0417 18.269C60.2841 19.0377 61.3298 20.0983 64.4506 21.2529C67.5713 22.3978 71.8033 22.8097 75.5272 21.1329C76.963 20.4842 78.8348 19.0831 80.0018 17.9933C81.2508 18.0841 82.0932 18.1393 83.6241 18.8074C81.9392 20.6821 78.966 23.1373 76.7434 24.1427C72.2229 26.173 65.8601 25.8 62.7591 24.9925L62.7525 24.9957ZM72.967 38.7247C73.7276 39.9507 74.3832 41.2318 74.9208 42.5778C76.5697 46.6612 77.1237 51.2375 76.4025 55.8041C77.6449 55.9955 78.5431 55.7685 79.6806 55.4571C80.2378 50.6699 79.6248 45.5163 77.9038 41.2351C77.4875 40.1907 77.0155 39.1853 76.468 38.2058L76.2648 38.2415C75.1732 38.462 74.0783 38.6274 72.967 38.728V38.7247ZM77.7531 35.3484C78.7824 35.0273 79.7822 34.6446 80.7722 34.1938C85.5779 32.024 89.6263 28.8131 92.711 24.1913C92.2029 23.1665 91.3506 22.5891 90.4786 21.7491C87.8037 25.5373 83.6077 29.3645 79.5593 31.184C78.2808 31.7613 76.9663 32.2283 75.6125 32.5754C76.2976 33.3797 76.9466 34.2133 77.5564 35.0662C77.6219 35.1668 77.6875 35.2576 77.7498 35.3484H77.7531ZM54.5933 10.5629C57.324 13.6667 58.75 16.3295 54.9441 18.4442C51.0366 20.6237 48.7747 17.1079 46.303 12.6872C44.5722 9.60283 42.7463 6.07733 40.173 3.74537C33.9119 -1.93046 24.5496 -0.876382 20.4553 5.02649C16.361 10.9196 8.70333 10.858 8.70333 10.858C8.70333 10.858 13.2238 13.8224 20.4291 8.09468C27.6245 2.36371 37.2195 6.65788 33.6529 12.1391C29.929 17.8701 24.6512 9.80392 16.2134 14.0332C9.34256 17.4744 3.43216 13.7413 3.24859 13.6311C3.36004 13.8062 6.96267 19.5177 12.9911 17.7144C19.1211 15.8754 30.6698 20.1404 32.7088 27.1687C34.7379 34.2068 26.3821 35.2965 24.2907 29.3385C22.1992 23.3708 16.633 17.4485 11.234 22.2713C5.82517 27.0844 0 26.7114 0 26.7114C0 26.7114 2.62247 29.0077 8.00182 26.786C13.391 24.5611 20.829 27.6098 14.0663 31.9948C7.29703 36.3798 1.04571 31.1159 1.04571 31.1159C1.04571 31.1159 4.16645 38.4199 18.0852 35.6728C27.1787 33.8792 42.7922 37.1647 55.2031 44.2384C61.815 48.0007 59.6842 51.5424 69.1579 55.6614C78.6316 59.7707 95.1269 53.5922 98.0248 41.9518C100.913 30.3083 92.6454 18.7134 82.1883 16.8452C71.7312 14.977 71.3903 18.5123 68.3515 17.549C62.7492 15.7652 58.3041 6.87843 49.9778 7.06979C52.479 8.5974 52.9772 8.95416 54.5901 10.5661L54.5933 10.5629Z" fill="#FF4A4A"/>
</svg>
