<?xml version="1.0" encoding="UTF-8"?>
<svg id="_Слой_2" data-name="Слой 2" xmlns="http://www.w3.org/2000/svg" viewBox="0 0 1776.9913669322 231.5939597248">
  <defs>
    <style>
      .cls-1 {
        fill: #fff;
      }
    </style>
  </defs>
  <g id="Layer_1" data-name="Layer 1">
    <g>
      <path class="cls-1" d="M255.9103801477,105.8656275096l66.2846187887,125.7253625352h-112.3124934562c-11.0366301292,0-19.6323689003-5.2627679134-23.9303001541-12.8611891499l-21.481242176-41.5190961334-54.0073429695,42.1031332009c-9.2039044885,7.6063403831-21.4650326726,12.2771520825-32.5097675535,12.2771520825H0l136.8591259478-107.0332066978L71.7989433457,0h111.6962229871c12.2773376875,0,20.2486393694,5.8631382209,24.5546753749,13.469478604l20.8649717069,39.7674798779L297.0483673473,0h94.496578825l-135.6345660246,105.8656275096Z"/>
      <path class="cls-1" d="M627.2691120991,40.0614781982h-93.4829280503c-9.836570066,0-21.4813040443,8.1903774505-24.5466324916,17.5324957959l-17.2401060522,48.184542902h93.8964559909l-9.8121939426,28.0743648628h-93.8802464875l-18.1889188134,52.1258032138c-3.6816607847,9.9583269461,1.8488732757,17.5404149426,12.2854424391,17.5404149426h93.4829280503l-10.4365691634,28.0738699161h-188.0038829987c-20.8568050868,0-31.8934352161-15.7883037403-24.5383421349-35.6559579126l56.4562153427-160.2622460329C410.6477840069,15.7907784737,432.7210442653.01039388,453.5941825922.01039388h188.6120487161l-14.9371192092,40.0510843182Z"/>
      <path class="cls-1" d="M875.341826165,231.5939597248h-76.1049793513c-20.8649717069,0-31.9097065877-15.7883037403-24.5384658716-35.6559579126l49.2471933967-138.4563807116c3.0571618273-9.9504077995-1.8326637724-17.5404149426-12.2772758191-17.5404149426h-32.5260389252l-68.2795013312,191.6527535667h-113.5288867595L679.5692602764.0113837734h241.1678368471c20.2730154928,0,31.3177503736,15.7803845936,24.5546753749,35.6722911526l-69.9499463334,195.9102847988Z"/>
      <path class="cls-1" d="M1191.7022081822,231.5939597248h-240.5596711296c-20.8893478302,0-31.9259160911-15.7883037403-24.5546753749-35.6559579126L995.9134327902.0113837734h113.5532628828l-65.5304438043,185.7980294391c-3.6654512814,9.9340745595,1.8569161591,17.5404149426,12.2854424391,17.5404149426h13.5099404941c10.4040264201,0,21.4811803076-7.6063403831,25.146631589-17.5404149426L1160.4006673119.0113837734h113.5369296428l-82.2353887725,231.5825759514Z"/>
      <path class="cls-1" d="M1712.0165007619,231.5939597248h-142.941092464c-20.2487631061,0-31.2934979869-15.7883037403-24.5384658716-35.6559579126l49.2714457834-138.3351187781c3.6734941647-9.9414987595-1.8325400357-17.5399199959-12.2528996958-17.5399199959h-24.5466324916l-67.7119212405,191.5309966865h-108.0063955823l61.5408024559-173.9910766906c3.6814133114-9.9414987595-1.824620889-17.5399199959-12.2855661758-17.5399199959h-24.5302992516l-67.6874213805,191.5309966865h-107.9741003123L1312.5488814178.0113837734h372.5204955162c20.2487631061,0,31.2853313669,15.7803845936,24.5466324916,35.6722911526l-55.8968018719,156.7025896017c-3.7059131714,9.9741652395,1.824620889,17.5483340893,12.2368139291,17.5483340893h53.350548742l-7.2900694627,21.6593611079Z"/>
      <path class="cls-1" d="M1754.5126216166,46.5937843133c-13.185379217,0-22.5920881024-9.4148755054-22.5920881024-21.8786224815,0-13.1452885369,10.4609452868-21.8543700948,22.5920881024-21.8543700948,12.0422998888,0,22.4787453156,8.7090815579,22.4787453156,21.8543700948,0,13.1690459769-10.4364454268,21.8786224815-22.4787453156,21.8786224815M1754.5126216166,6.6560427819h0c-9.9417462328,0-17.6616768761,7.4360787296-17.6616768761,18.0591190499,0,9.9499128528,6.7386988753,18.0754522899,17.6616768761,18.0754522899,9.820236826,0,17.5565007093-7.3549074761,17.5565007093-18.0754522899,0-10.6230403203-7.7362638833-18.0591190499-17.5565007093-18.0591190499M1749.9635667975,37.2437468213h-4.1681933587V13.0458042568h9.6581417924c6.1304094212,0,9.2361997586,2.0357156426,9.2361997586,6.9416270089,0,4.3787931656-2.8056051836,6.1952474346-6.6169419952,6.6090228485l7.1279744292,10.647292707h-4.7358971861l-6.5521039818-10.3636882667h-3.9491794584v10.3636882667ZM1754.6507117368,23.4822496836h0c3.1057903373,0,5.8628907475-.291523587,5.8628907475-3.7947560982,0-2.9276095371-2.9679476905-3.2681328442-5.5062816738-3.2681328442h-5.0437540131v7.0628889424h4.6871449394Z"/>
    </g>
  </g>
</svg>